<?xml version="1.0" encoding="UTF-8"?>
<svg version="1.1" xmlns="http://www.w3.org/2000/svg" width="300" height="150">
<path d="M0 0 C99 0 198 0 300 0 C300 49.5 300 99 300 150 C201 150 102 150 0 150 C0 100.5 0 51 0 0 Z " fill="#090909" transform="translate(0,0)"/>
<path d="M0 0 C29.7 0 59.4 0 90 0 C83.24213108 12.38942635 83.24213108 12.38942635 79.85546875 18.08984375 C79.30418304 19.01897331 79.30418304 19.01897331 78.74176025 19.96687317 C77.55912105 21.95834791 76.3734394 23.94798911 75.1875 25.9375 C74.3561656 27.33559083 73.52486735 28.73370315 72.69360352 30.13183594 C66.28299504 40.90151045 59.79691752 51.62479876 53.2565918 62.31616211 C52.59312744 63.40292236 51.92966309 64.48968262 51.24609375 65.609375 C50.66529053 66.55780273 50.0844873 67.50623047 49.48608398 68.48339844 C48.23346039 70.60464767 47.10170451 72.79659098 46 75 C75.04 75 104.08 75 134 75 C132.46529932 79.60410205 131.22513771 82.59508209 128.75390625 86.5859375 C128.09044189 87.66641357 127.42697754 88.74688965 126.7434082 89.86010742 C126.3886441 90.43183685 126.03388 91.00356628 125.66836548 91.59262085 C123.75092338 94.68305896 121.85302031 97.78547397 119.953125 100.88671875 C119.55321854 101.53842545 119.15331207 102.19013214 118.74128723 102.86158752 C115.73864634 107.76464722 112.78696456 112.69633617 109.859375 117.64453125 C109.43643661 118.35935669 109.01349823 119.07418213 108.57774353 119.81066895 C106.9173519 122.61957833 105.25857395 125.42942093 103.60379028 128.24163818 C102.45275061 130.1974633 101.29876864 132.15152962 100.14453125 134.10546875 C99.48815674 135.22074951 98.83178223 136.33603027 98.15551758 137.48510742 C97.7999176 138.03420273 97.44431763 138.58329803 97.07794189 139.14903259 C95.9085209 141.03299394 95.9085209 141.03299394 95.11981201 143.3999176 C93.74731968 146.45667994 92.70410952 147.98048416 90 150 C83.48281325 151.71563015 76.3959475 151.04362552 69.7265625 150.87890625 C67.94558233 150.86566533 66.16456716 150.85648885 64.38354492 150.85144043 C57.79682743 150.80435002 51.21086085 150.67869688 44.625 150.5625 C22.535625 150.2840625 22.535625 150.2840625 0 150 C0 100.5 0 51 0 0 Z " fill="#111111" transform="translate(0,0)"/>
<path d="M0 0 C0.8621965 -0.02628479 1.72439301 -0.05256958 2.61271667 -0.07965088 C5.4702596 -0.15857679 8.32696079 -0.20523191 11.18530273 -0.24511719 C12.16300062 -0.2614193 13.14069851 -0.27772141 14.14802361 -0.29451752 C19.32716358 -0.37797438 24.50587991 -0.43516246 29.68554688 -0.47265625 C35.02235495 -0.51683663 40.35245047 -0.65427545 45.6868906 -0.81334305 C49.80073343 -0.91826799 53.91299612 -0.95144291 58.02805901 -0.96578217 C59.99355159 -0.98519723 61.95897898 -1.03152801 63.92315865 -1.10593414 C78.84117197 -1.63572826 78.84117197 -1.63572826 83.32859039 2.23773575 C86.4612675 6.00632493 88.59333611 10.1638882 90.58183002 14.61922741 C92.16889828 18.02077795 94.16038028 21.16480814 96.12670898 24.35644531 C96.88088579 25.62824517 97.63273519 26.90143057 98.38134766 28.17651367 C106.05365404 41.20929364 113.84014995 54.16113969 121.83227539 67.00048828 C122.45666504 68.00611816 123.08105469 69.01174805 123.72436523 70.04785156 C124.27374756 70.92820068 124.82312988 71.8085498 125.38916016 72.71557617 C126.55639648 74.70800781 126.55639648 74.70800781 126.55639648 75.70800781 C67.15639648 75.70800781 7.75639648 75.70800781 -53.44360352 75.70800781 C-46.6857346 63.31858146 -46.6857346 63.31858146 -43.29907227 57.61816406 C-42.93159378 56.99874435 -42.5641153 56.37932465 -42.1855011 55.74113464 C-41.00292961 53.74959117 -39.8172543 51.75992124 -38.63110352 49.77050781 C-38.22263184 49.08412231 -37.81416016 48.39773682 -37.39331055 47.69055176 C-31.28273024 37.42266648 -25.13277389 27.17870451 -18.94360352 16.95800781 C-18.40260513 16.06264816 -18.40260513 16.06264816 -17.85067749 15.14920044 C-16.83188207 13.46427742 -15.8096932 11.78140768 -14.78735352 10.09863281 C-14.21178711 9.15020508 -13.6362207 8.20177734 -13.04321289 7.22460938 C-12.25140625 5.9788916 -12.25140625 5.9788916 -11.44360352 4.70800781 C-11.08976089 4.01070557 -10.73591827 3.31340332 -10.37135315 2.5949707 C-7.37365404 -0.339304 -3.97965276 0.05251525 0 0 Z " fill="#010101" transform="translate(143.443603515625,74.2919921875)"/>
<path d="M0 0 C24.75 0 49.5 0 75 0 C75 24.75 75 49.5 75 75 C65.1 75 55.2 75 45 75 C41.47086506 69.70629759 38.06674705 64.5619221 34.85546875 59.10546875 C34.48799026 58.48330978 34.12051178 57.86115082 33.74189758 57.22013855 C32.95907266 55.89457391 32.17728584 54.56839572 31.39648438 53.24163818 C29.3155154 49.70594499 27.22673002 46.17488511 25.13671875 42.64453125 C24.7116806 41.92648315 24.28664246 41.20843506 23.84872437 40.46862793 C18.75887676 31.88506226 13.56176203 23.36667511 8.34448242 14.86010742 C7.68424072 13.77963135 7.02399902 12.69915527 6.34375 11.5859375 C5.48040039 10.17900635 5.48040039 10.17900635 4.59960938 8.74365234 C2.94091084 5.89865019 1.47277412 2.94554824 0 0 Z " fill="#171717" transform="translate(225,75)"/>
<path d="M0 0 C29.7 0 59.4 0 90 0 C83.24213108 12.38942635 83.24213108 12.38942635 79.85546875 18.08984375 C79.30418304 19.01904129 79.30418304 19.01904129 78.74176025 19.9670105 C77.55918845 21.95848027 76.37353813 23.948093 75.1875 25.9375 C74.35618999 27.33487291 73.52489134 28.73225257 72.69360352 30.12963867 C66.98445648 39.71655727 61.22852301 49.27483735 55.4375 58.8125 C55.07256439 59.41367645 54.70762878 60.01485291 54.33163452 60.63424683 C48.39516618 70.40725073 48.39516618 70.40725073 46 74 C42.0389059 72.6796353 41.63482314 71.13539314 39.5859375 67.54296875 C39.25896881 66.97662216 38.93200012 66.41027557 38.59512329 65.82676697 C37.8860593 64.5967875 37.18100674 63.36448883 36.47949219 62.13018799 C34.59586096 58.81707468 32.68260292 55.52109858 30.7734375 52.22265625 C30.380495 51.54193054 29.98755249 50.86120483 29.58270264 50.15985107 C25.49107683 43.08551748 21.25763946 36.10026386 17 29.125 C16.28432466 27.95041849 15.56874717 26.77577736 14.85327148 25.60107422 C13.50963962 23.3960016 12.16551082 21.19123169 10.82080078 18.98681641 C8.35034885 14.93432125 5.88811965 10.87701619 3.4375 6.8125 C2.75558594 5.68457031 2.07367187 4.55664062 1.37109375 3.39453125 C0 1 0 1 0 0 Z " fill="#191919" transform="translate(0,0)"/>
<path d="M0 0 C2.83819584 2.83819584 4.42734385 5.20429041 6.4140625 8.65234375 C6.74107651 9.21595108 7.06809052 9.77955841 7.40501404 10.36024475 C8.11216503 11.57947954 8.81735201 12.79985512 9.52078247 14.02124023 C11.41041235 17.30050506 13.31648418 20.57017499 15.22265625 23.83984375 C15.81176033 24.85103775 15.81176033 24.85103775 16.4127655 25.88265991 C20.55039311 32.96978371 24.79393163 39.99118021 29.0625 47 C29.73941895 48.11238037 30.41633789 49.22476074 31.11376953 50.37084961 C32.09579346 51.98165405 32.09579346 51.98165405 33.09765625 53.625 C33.72945801 54.66914062 34.36125977 55.71328125 35.01220703 56.7890625 C36.42217005 59.06661514 37.85498003 61.29891714 39.34326172 63.5234375 C39.7240538 64.10528809 40.10484589 64.68713867 40.49717712 65.28662109 C41.56049726 66.90762237 42.64191208 68.51671209 43.72436523 70.125 C45 73 45 73 44.44580078 75.46850586 C43.96868652 76.30389893 43.49157227 77.13929199 43 78 C42.43853271 79.01006104 41.87706543 80.02012207 41.29858398 81.06079102 C40.61815771 82.21071562 39.93375507 83.35829356 39.24609375 84.50390625 C38.87309143 85.13154373 38.50008911 85.75918121 38.11578369 86.40583801 C36.8933426 88.46026101 35.66557488 90.51144057 34.4375 92.5625 C33.58485913 93.99224103 32.73240368 95.42209265 31.88012695 96.85205078 C24.25289007 109.63414599 16.53715052 122.36254658 8.77880859 135.06542969 C6.53030049 138.7748817 4.32880136 142.51144971 2.13989258 146.25634766 C1.76372803 146.83175293 1.38756348 147.4071582 1 148 C0.67 148 0.34 148 0 148 C0 99.16 0 50.32 0 0 Z " fill="#000000" transform="translate(0,1)"/>
</svg>
