<?xml version="1.0" encoding="UTF-8"?>
<svg version="1.1" xmlns="http://www.w3.org/2000/svg" width="1416" height="2000">
<path d="M0 0 C467.28 0 934.56 0 1416 0 C1416 25.40223877 1416 25.40223877 1414.78149414 37.64233398 C1414.69513702 38.5234787 1414.60877991 39.40462341 1414.51980591 40.31246948 C1414.38625198 41.67373459 1414.38625198 41.67373459 1414.25 43.0625 C1414.06590834 45.0195125 1413.88291202 46.9766283 1413.70092773 48.93383789 C1413.32476185 52.97094229 1412.94402632 57.00757584 1412.56005859 61.04394531 C1412.02456772 66.7018971 1411.51626514 72.36196402 1411.01953125 78.0234375 C1410.94070206 78.92173279 1410.86187286 79.82002808 1410.78065491 80.74554443 C1410.62129336 82.56334702 1410.46201713 84.38115709 1410.30282593 86.19897461 C1408.6386232 105.1626439 1406.87853582 124.11707321 1405.11013794 143.07125854 C1403.77524059 157.39760115 1402.49334036 171.72542309 1401.33273315 186.06689453 C1400.16885883 200.40935888 1398.83814811 214.73536808 1397.5 229.0625 C1396.09965729 244.0587429 1394.70510436 259.05438653 1393.4375 274.0625 C1393.20447736 276.81771259 1392.97144408 279.57292427 1392.73828125 282.328125 C1392.6800116 283.01686707 1392.62174194 283.70560913 1392.56170654 284.41522217 C1391.77257132 293.71633579 1390.95021612 303.01452834 1390.125 312.3125 C1390.00137085 313.70625854 1390.00137085 313.70625854 1389.87524414 315.12817383 C1388.33661905 332.44627062 1386.72542314 349.75740106 1385.1104126 367.06851196 C1383.77539089 381.39609737 1382.49287983 395.72513584 1381.33273315 410.06790161 C1380.07488879 425.57722488 1378.61635098 441.06715739 1377.16699219 456.55957031 C1375.87637794 470.36800063 1374.61779529 484.17647563 1373.5 498 C1372.28405766 513.03195381 1370.90245272 528.04687873 1369.5 543.0625 C1368.09965785 558.05873694 1366.704624 573.05434912 1365.4375 588.0625 C1365.38044891 588.73799896 1365.32339783 589.41349792 1365.26461792 590.10946655 C1365.17895065 591.1239537 1365.17895065 591.1239537 1365.09155273 592.15893555 C1364.97514032 593.53695022 1364.85868496 594.91496126 1364.7421875 596.29296875 C1364.6841243 596.97985275 1364.6260611 597.66673676 1364.5662384 598.37443542 C1363.35036726 612.70267874 1362.05006483 627.02377617 1360.77114868 641.34649658 C1360.18732934 647.88821256 1359.60806398 654.43031919 1359.03125 660.97265625 C1357.21703933 681.52827618 1355.35104921 702.07837703 1353.4375 722.625 C1351.93132065 738.79917469 1350.4581059 754.97458867 1349.09130859 771.16113281 C1348.11368495 782.73531154 1347.09389918 794.30549345 1346.0625 805.875 C1345.9781369 806.82166534 1345.8937738 807.76833069 1345.80685425 808.74368286 C1345.37693271 813.56710671 1344.94662276 818.39049579 1344.51611328 823.21386719 C1343.75814069 831.70823357 1343.00367265 840.20291136 1342.24899292 848.6975708 C1341.83281051 853.38172707 1341.41639318 858.06586246 1341 862.75 C1340.83333221 864.6249999 1340.66666555 866.4999999 1340.5 868.375 C1335.5 924.62500005 1335.5 924.62500005 1335.24998474 927.43763733 C1335.08336086 929.31217885 1334.91674506 931.18672108 1334.75013733 933.06126404 C1334.33288227 937.75578473 1333.91548589 942.45029277 1333.49780273 947.14477539 C1332.75468676 955.49842548 1332.01241839 963.85214452 1331.27568054 972.20635986 C1329.38147265 993.68422349 1327.43689099 1015.15665596 1325.4375 1036.625 C1323.93132065 1052.79917469 1322.4581059 1068.97458867 1321.09130859 1085.16113281 C1320.11368495 1096.73531154 1319.09389918 1108.30549345 1318.0625 1119.875 C1317.9781369 1120.82166534 1317.8937738 1121.76833069 1317.80685425 1122.74368286 C1317.37693271 1127.56710671 1316.94662276 1132.39049579 1316.51611328 1137.21386719 C1315.75814069 1145.70823357 1315.00367265 1154.20291136 1314.24899292 1162.6975708 C1313.83281051 1167.38172707 1313.41639318 1172.06586246 1313 1176.75 C1312.83333221 1178.6249999 1312.66666555 1180.4999999 1312.5 1182.375 C1311.50000001 1193.62499987 1311.50000001 1193.62499987 1311.25 1196.43748474 C1311.08332974 1198.31253528 1310.91666308 1200.18758615 1310.75 1202.06263733 C1310.33341766 1206.74936663 1309.91677302 1211.43609038 1309.5 1216.12280273 C1308.74892617 1224.56949533 1307.99829761 1233.01622623 1307.25 1241.46316528 C1305.44027185 1261.89131121 1303.61274858 1282.31764504 1301.75 1302.74102783 C1300.05582273 1321.3219667 1298.40052785 1339.90625439 1296.75453186 1358.49151611 C1296.16052263 1365.1963958 1295.56335741 1371.90098978 1294.96484375 1378.60546875 C1292.93093366 1401.39984274 1290.93386247 1424.19690971 1289 1447 C1283.01983761 1449.80136639 1276.94454767 1451.47212355 1270.5625 1453.125 C1260.34618144 1455.82089173 1250.16538802 1458.61980419 1240 1461.5 C1230.3499961 1464.23044357 1220.69000306 1466.9141867 1211 1469.5 C1201.29122113 1472.09244006 1191.60900874 1474.77248983 1181.9375 1477.5 C1181.25392426 1477.69272491 1180.57034851 1477.88544983 1179.86605835 1478.08401489 C1174.15709456 1479.69406234 1168.44910269 1481.30754319 1162.74121094 1482.92138672 C1150.5011341 1486.37882383 1138.24134806 1489.7543262 1125.9593811 1493.05932617 C1100.76081252 1499.84017325 1075.62939116 1506.85907964 1050.51953125 1513.9609375 C1049.67569382 1514.1995903 1048.83185638 1514.4382431 1047.96244812 1514.68412781 C1046.70933586 1515.03855705 1046.70933586 1515.03855705 1045.4309082 1515.40014648 C1044.60402496 1515.63402069 1043.77714172 1515.8678949 1042.92520142 1516.1088562 C1041.26728258 1516.57779685 1039.60938461 1517.04681128 1037.95150757 1517.51589966 C1028.46312955 1520.19918748 1018.96733564 1522.84196212 1009.4375 1525.375 C997.23385484 1528.61925039 985.08685194 1532.05901523 972.9375 1535.5 C971.42286163 1535.92888016 971.42286163 1535.92888016 969.87762451 1536.36642456 C964.08181347 1538.00781568 958.28640139 1539.65061199 952.49108887 1541.29376221 C938.90127233 1545.14655211 925.30955591 1548.94300409 911.62744141 1552.45532227 C901.16268397 1555.17019438 890.77338359 1558.15003517 880.3739624 1561.10290527 C869.60489817 1564.15899453 858.82557018 1567.14932842 848 1570 C826.12255016 1575.7691202 804.37525366 1582.01688507 782.62963867 1588.26171875 C771.74430687 1591.38703424 760.84324759 1594.43205713 749.89794922 1597.34106445 C743.97503315 1598.91752148 738.06719521 1600.53819841 732.171875 1602.21484375 C730.19516186 1602.77347974 728.21829938 1603.33158492 726.24142456 1603.88964844 C724.36036401 1604.4239057 722.48201767 1604.96769039 720.60375977 1605.51171875 C709.32185997 1608.69340861 702.03735227 1607.72825825 690.875 1604.5 C689.59068643 1604.13591706 688.30609401 1603.77281646 687.02124023 1603.41064453 C684.34981425 1602.65679839 681.67963703 1601.89874225 679.01025391 1601.13769531 C672.70528896 1599.34401355 666.38304089 1597.61281147 660.0625 1595.875 C658.845625 1595.53903809 657.62875 1595.20307617 656.375 1594.85693359 C651.09283358 1593.39862738 645.80971233 1591.94461008 640.51953125 1590.515625 C629.29651781 1587.48352426 618.1120205 1584.33030879 606.9375 1581.125 C592.49208305 1576.98148895 578.02222559 1572.93898253 563.52832031 1568.96777344 C557.51692878 1567.31892511 551.50865577 1565.65878433 545.5 1564 C543.09245942 1563.33589578 540.68490734 1562.67183328 538.27734375 1562.0078125 C533.35262209 1560.64931438 528.42817479 1559.28982715 523.50390625 1557.9296875 C521.02344403 1557.24476802 518.54297533 1556.559872 516.0625 1555.875 C514.24649292 1555.37335327 514.24649292 1555.37335327 512.39379883 1554.86157227 C506.97645622 1553.36656111 501.5579545 1551.87663704 496.1328125 1550.41015625 C486.74473716 1547.87198503 477.3901622 1545.25273206 468.0625 1542.5 C459.31841134 1539.92179526 450.54154483 1537.5372784 441.71289062 1535.26733398 C426.41013856 1531.32054693 411.22259935 1526.95980699 396.0625 1522.5 C384.4580922 1519.08845493 372.78838212 1515.94305563 361.1015625 1512.82763672 C348.77738233 1509.53898978 336.4858779 1506.1668594 324.25 1502.5625 C312.58354471 1499.12722956 300.852361 1495.96011083 289.1015625 1492.82763672 C276.77738233 1489.53898978 264.4858779 1486.1668594 252.25 1482.5625 C240.58354471 1479.12722956 228.852361 1475.96011083 217.1015625 1472.82763672 C203.77325675 1469.2710438 190.49575483 1465.58211627 177.26367188 1461.68237305 C168.5655498 1459.13323853 159.82326219 1456.76601306 151.06591797 1454.4296875 C143.35148897 1452.37093246 135.66290069 1450.24314002 128 1448 C126.80603718 1438.76584075 125.83741689 1429.53402359 125.125 1420.25 C124.24330407 1408.82609469 123.26601374 1397.41265555 122.25 1386 C122.16769135 1385.07484589 122.08538269 1384.14969177 122.00057983 1383.19650269 C120.35460871 1364.73133502 118.64624097 1346.2719374 116.9375 1327.8125 C112.20779892 1276.71664471 112.20779892 1276.71664471 110.2265625 1252.6484375 C110.16117279 1251.85428436 110.09578308 1251.06013123 110.02841187 1250.24191284 C109.96312286 1249.44874664 109.89783386 1248.65558044 109.83056641 1247.83837891 C109.76540833 1247.04683411 109.70025024 1246.25528931 109.63311768 1245.4397583 C109.50371128 1243.86713748 109.37443672 1242.29450581 109.24530029 1240.72186279 C108.5009134 1231.67608483 107.69540581 1222.6443163 106.69458008 1213.62280273 C106.05797663 1207.79784848 105.57645636 1201.96700879 105.125 1196.125 C104.2110153 1184.32535486 103.17852763 1172.53788399 102.125 1160.75 C102.03913635 1159.78878235 101.95327271 1158.8275647 101.86480713 1157.83721924 C101.42125306 1152.873844 100.97692235 1147.91053869 100.53222656 1142.94726562 C99.76658153 1134.39785344 99.00770234 1125.84784092 98.24853516 1117.29785156 C97.99797386 1114.47719103 97.74708544 1111.65655977 97.49609375 1108.8359375 C96.76179508 1100.58285422 96.02832609 1092.3297051 95.30134583 1084.07597351 C93.2378168 1060.64937894 91.10608249 1037.22956546 88.9375 1013.8125 C86.32116802 985.55792262 83.78971736 957.29797538 81.37805176 929.02514648 C79.80624406 910.60781791 78.15937011 892.19719816 76.51611328 873.78613281 C75.75830423 865.29359918 75.00403864 856.8007508 74.24954224 848.30792236 C73.99849782 845.48309699 73.74720947 842.65829341 73.49584961 839.83349609 C72.76165746 831.5812244 72.02825433 823.32889042 71.30134583 815.07597351 C69.2378168 791.64937894 67.10608249 768.22956546 64.9375 744.8125 C62.32116802 716.55792262 59.78971736 688.29797538 57.37805176 660.02514648 C55.80624406 641.60781791 54.15937011 623.19719816 52.51611328 604.78613281 C51.75814069 596.29176643 51.00367265 587.79708864 50.24899292 579.3024292 C49.83281051 574.61827293 49.41639318 569.93413754 49 565.25 C48.83333221 563.3750001 48.66666555 561.5000001 48.5 559.625 C48.4175 558.696875 48.335 557.76875 48.25 556.8125 C47.875 552.59375 47.875 552.59375 47.5 548.375 C47.41748993 547.44677429 47.33497986 546.51854858 47.24996948 545.56219482 C47.08339557 543.68821287 46.91683062 541.81423013 46.75027466 539.94024658 C46.33226258 535.23716382 45.91409208 530.53409525 45.49560547 525.83105469 C44.76151986 517.57959457 44.02818258 509.32807575 43.30134583 501.07597351 C41.2378168 477.64937894 39.10608249 454.22956546 36.9375 430.8125 C34.32116802 402.55792262 31.78971736 374.29797538 29.37805176 346.02514648 C27.88628445 328.54567444 26.32659559 311.0723075 24.7665863 293.59881592 C24.19692272 287.21587479 23.6305588 280.83264915 23.06640625 274.44921875 C21.55932503 257.40959723 20.03716936 240.37145803 18.484375 223.3359375 C18.41823376 222.61001844 18.35209251 221.88409939 18.28394699 221.13618279 C17.62245129 213.87621261 16.96026523 206.61630724 16.29518318 199.35666466 C15.06548961 185.92820359 13.8585202 172.49888085 12.75527954 159.05932617 C11.77430285 147.15997091 10.69729129 135.26915984 9.62677002 123.37759399 C9.23953229 119.07439248 8.85481353 114.77096734 8.47021484 110.4675293 C7.23188316 96.62193603 5.98367403 82.77739024 4.70288086 68.93565369 C4.20895386 63.59673859 3.71974275 58.25739408 3.23160553 52.91794682 C2.83471999 48.58147061 2.43155339 44.24564002 2.02357292 39.9101944 C1.83161449 37.85768 1.64306377 35.80488514 1.45596313 33.75192261 C1.2300477 31.27307799 0.99911373 28.79468201 0.76156616 26.31692505 C-0.03448458 17.43715247 0 9.01781278 0 0 Z " fill="#F38131" transform="translate(0,392)"/>
<path d="M0 0 C191.07 0 382.14 0 579 0 C578.40320108 14.32317409 577.63848162 27.88977735 575.81640625 41.98828125 C574.82445761 50.09836901 574.19286642 58.23051185 573.5625 66.375 C572.48598275 80.26412288 571.26123138 94.13225778 569.9375 108 C568.64261549 121.57681822 567.51428457 135.14061654 566.64819336 148.75195312 C566.19076081 155.77239286 565.46371404 162.66053995 564.49609375 169.62890625 C563.73662995 175.70609711 563.44813731 181.82781843 563.0625 187.9375 C562.39904115 198.4117806 561.37880184 208.77041124 560.03540039 219.17749023 C559.14437913 226.26079693 558.66940267 233.27352164 558.41381836 240.40454102 C558.08847466 248.23709256 557.08436849 255.95184903 556.0859375 263.72265625 C555.2808353 270.15558071 554.73268697 276.52223136 554.5 283 C554.23108886 290.24969889 553.54677664 297.36710462 552.625 304.5625 C551.29713126 314.98306103 550.26604833 325.40968592 549.375 335.875 C549.27762543 337.01654541 549.27762543 337.01654541 549.17828369 338.18115234 C548.47750264 346.46934228 547.84601483 354.7507229 547.5 363.0625 C547.21056421 369.88133368 546.51424318 376.60114291 545.6875 383.375 C544.19188156 395.66708466 543.03072671 407.97897979 541.9375 420.3125 C541.85060913 421.29107971 541.76371826 422.26965942 541.67419434 423.27789307 C540.52925524 436.24396704 539.53745667 449.2074459 538.72070312 462.19824219 C538.14645591 470.90088256 537.15401547 479.5147479 536.03710938 488.16259766 C535.12625312 495.38755619 534.57169457 502.56402727 534.37866211 509.84399414 C534.23245272 514.42437267 533.76334503 518.87259392 533.10717773 523.40917969 C531.68371664 533.7068903 530.86191049 544.05910104 529.9765625 554.4140625 C529.78753657 556.5941334 529.598188 558.77417635 529.40853882 560.95419312 C528.91060002 566.68716099 528.41669208 572.42046876 527.92376709 578.15386963 C527.43571726 583.82412134 526.94440659 589.49409003 526.453125 595.1640625 C526.35681164 596.27600857 526.26049828 597.38795464 526.16126633 598.53359604 C525.96722003 600.77382082 525.77315245 603.01404375 525.57906342 605.25426483 C525.38600642 607.48259999 525.19297757 609.71093759 524.99997711 611.93927765 C524.42884965 618.53308557 523.85715773 625.12684417 523.28468323 631.72053528 C523.09363782 633.92132059 522.90271121 636.12211622 522.7118988 638.32292175 C522.15622442 644.73002063 521.59766199 651.13685487 521.03467941 657.54331589 C520.86217092 659.51120949 520.69062529 661.47918777 520.52009964 663.44725418 C520.28603828 666.14655125 520.04850063 668.84552047 519.81005859 671.54443359 C519.70860346 672.72778353 519.70860346 672.72778353 519.60509872 673.93503952 C519.26995384 677.68586073 518.78910302 681.31912137 518 685 C517.81139152 687.29696324 517.66034966 689.59714658 517.53515625 691.8984375 C517.45772662 693.26774339 517.38025081 694.63704667 517.30273438 696.00634766 C517.26365967 696.71946106 517.22458496 697.43257446 517.18432617 698.16729736 C516.18899769 716.20438479 515.00850429 734.19135315 512.49609375 752.08984375 C510.98776401 763.97833251 510.23068281 775.96446199 509.3125 787.91015625 C509.18744534 789.5266134 509.06236363 791.14306845 508.93725586 792.75952148 C508.69628416 795.87457909 508.46065444 798.989968 508.22875977 802.10571289 C507.51424854 811.5169393 506.61377828 820.8992238 505.62109375 830.28515625 C503.79583114 847.58262061 502.25381258 864.90332393 500.72777939 882.22937012 C500.49699433 884.84658573 500.26518213 887.46370863 500.03311157 890.08081055 C498.10677731 911.81792695 496.18868172 933.5547336 494.76513672 955.3318634 C494.37424731 960.79277228 493.86989965 966.19106805 493.08422852 971.61010742 C491.70161802 981.59621715 490.90223671 991.63357555 490.046875 1001.67578125 C489.86458557 1003.78425979 489.68194981 1005.89270842 489.49899292 1008.00112915 C489.11245532 1012.46217093 488.72789962 1016.92337688 488.34503174 1021.38473511 C487.44422445 1031.88028975 486.53403783 1042.37503225 485.62366104 1052.86976051 C485.42129243 1055.2029494 485.21905006 1057.53614924 485.01693344 1059.86935997 C483.76893475 1074.27257741 482.50209509 1088.67372573 481.1796875 1103.0703125 C481.1117675 1103.80983784 481.0438475 1104.54936317 480.97386932 1105.31129837 C480.46436944 1110.85382565 479.95226591 1116.39611178 479.44009399 1121.93839264 C477.75145486 1140.22297321 476.16770718 1158.50815687 474.93603516 1176.82983398 C474.40051478 1184.6630006 473.59815883 1192.40675067 472.50390625 1200.18530273 C471.59284219 1207.08228721 470.99953681 1214.00973823 470.375 1220.9375 C470.23986461 1222.41083312 470.10444911 1223.88414057 469.96875 1225.35742188 C469.64262283 1228.90465969 469.32022076 1232.45222351 469 1236 C467.92854736 1236.28665527 467.92854736 1236.28665527 466.83544922 1236.57910156 C444.42270559 1242.54142777 444.42270559 1242.54142777 422.1875 1249.125 C417.82014383 1250.48680655 413.49293369 1251.64783691 409 1252.5078125 C406.90078866 1252.97309606 406.90078866 1252.97309606 404.61328125 1253.97265625 C401.81710541 1255.07190027 399.12718064 1255.69739353 396.1875 1256.3125 C390.30322333 1257.62381505 384.62882147 1259.31138919 378.89794922 1261.15673828 C373.8305011 1262.77630796 368.73671437 1264.12859343 363.55078125 1265.32421875 C361.00748379 1265.93597952 361.00748379 1265.93597952 358.71875 1266.953125 C354.95913752 1268.40079187 351.11355612 1269.18432316 347.1875 1270.0625 C337.63009744 1272.26831956 328.18556429 1274.82943319 318.75 1277.5 C318.05542694 1277.69653168 317.36085388 1277.89306335 316.64523315 1278.09555054 C308.16689121 1280.49892925 299.70362911 1282.95085804 291.25854492 1285.46875 C286.59664264 1286.85023454 281.9076116 1288.0518657 277.18359375 1289.19921875 C272.55349964 1290.36384365 267.9613877 1291.65711019 263.36474609 1292.9465332 C258.95843018 1294.181351 254.54767517 1295.39635213 250.12890625 1296.5859375 C249.14132324 1296.85237061 248.15374023 1297.11880371 247.13623047 1297.39331055 C245.20750746 1297.91277867 243.27816744 1298.42996262 241.34814453 1298.94458008 C237.10596548 1300.08955881 233.07279875 1301.34229945 229 1303 C227.07033339 1303.47084954 225.13167657 1303.9056954 223.1875 1304.3125 C217.25176482 1305.63455011 211.50984846 1307.3186252 205.7331543 1309.19848633 C201.96852685 1310.41709127 198.20384667 1311.48101034 194.35620117 1312.41674805 C169.25026878 1318.63144833 144.11664959 1325.41742637 119.42529297 1333.09814453 C115.72554728 1334.23849405 112.05407085 1335.2348376 108.265625 1336.0390625 C104.99843334 1336.73330102 102.08886785 1337.71515684 99 1339 C97.07033339 1339.47084954 95.13167657 1339.9056954 93.1875 1340.3125 C87.27742143 1341.62734154 81.56520668 1343.3046069 75.82104492 1345.19848633 C72.481461 1346.2850639 69.17497952 1347.21230477 65.73828125 1347.94140625 C60.21594088 1349.12190228 54.84441374 1350.75582654 49.4375 1352.375 C41.0883598 1354.84834566 32.73369359 1357.12429526 24.26953125 1359.1640625 C21.52629301 1359.86544002 18.91182631 1360.66995752 16.25 1361.625 C12 1363 12 1363 0 1365 C0 914.55 0 464.1 0 0 Z " fill="#F79C35" transform="translate(708,511)"/>
<path d="M0 0 C135.96 0 271.92 0 412 0 C412 10.10884354 412 10.10884354 411.44921875 15.17578125 C411.32925537 16.31571533 411.20929199 17.45564941 411.08569336 18.63012695 C410.95428955 19.84531006 410.82288574 21.06049316 410.6875 22.3125 C409.29831347 35.60329895 408.1371818 48.90382004 407.09057617 62.22583008 C406.51786495 69.41318306 405.84607465 76.56948813 404.96875 83.7265625 C404.07826842 90.99501882 403.50759934 98.25237264 403.0625 105.5625 C402.40683629 115.58662855 401.3847506 125.490113 400.03979492 135.44311523 C399.07189322 142.81846393 398.54537749 150.15096508 398.29077148 157.58398438 C398.26442627 158.34259766 398.23808105 159.10121094 398.2109375 159.8828125 C398.19337402 160.53652832 398.17581055 161.19024414 398.15771484 161.86376953 C397.95483478 164.61175796 397.48127969 167.28851751 397 170 C396.06303032 170.0154612 396.06303032 170.0154612 395.10713196 170.03123474 C388.43619384 170.1418324 381.76532553 170.25613078 375.09448242 170.37231445 C372.62509665 170.41487633 370.15569592 170.45658147 367.6862793 170.49731445 C354.41283366 170.71686706 341.14894535 171.00606336 327.8828125 171.50390625 C311.8967506 172.09540114 295.91143424 172.28882815 279.91669464 172.47252274 C272.66183144 172.55719874 265.4070843 172.65157788 258.15234375 172.74609375 C257.36061768 172.75633009 256.5688916 172.76656643 255.75317383 172.77711296 C242.04159881 172.9558068 228.33369937 173.22826661 214.625 173.5625 C196.08066363 174.01293198 177.54915119 174.11855406 159 174 C159.01087646 174.98282959 159.02175293 175.96565918 159.03295898 176.97827148 C159.11360197 187.76288877 158.74093153 198.49185584 158.20236206 209.26168823 C157.96161001 214.08287548 157.73390756 218.9046684 157.5078125 223.7265625 C157.4627507 224.68596237 157.4176889 225.64536224 157.3712616 226.63383484 C156.9091691 236.65687811 156.59563594 246.68283951 156.34204102 256.71313477 C156.31037842 257.88932373 156.27871582 259.0655127 156.24609375 260.27734375 C156.21020142 261.76609009 156.21020142 261.76609009 156.17358398 263.28491211 C156.0212648 266.54488545 155.78206494 269.77841463 155.51586914 273.03051758 C154.95857267 280.09531482 154.70317726 287.15168515 154.5 294.234375 C154.43791839 296.24860924 154.37583401 298.26284341 154.31359863 300.27707291 C154.20657637 303.76797446 154.10353309 307.25899355 154 310.75 C153.85604217 315.5860835 153.70995947 320.42209259 153.56030273 325.25800323 C153.50236743 327.15678433 153.44740933 329.05565555 153.39257812 330.95452881 C153.10521716 340.32542661 152.55119439 349.62969541 152 359 C227.24 359 302.48 359 380 359 C378.87442678 381.51146448 378.87442678 381.51146448 377.5625 390.9375 C376.15509887 401.74733736 375.31005895 412.55206791 374.64672852 423.43139648 C374.57510498 424.59227783 374.50348145 425.75315918 374.4296875 426.94921875 C374.34050049 428.48582153 374.34050049 428.48582153 374.24951172 430.0534668 C374 433 374 433 373.51586914 435.87255859 C372.90103721 439.599959 372.59642422 443.32620306 372.31640625 447.08984375 C372.22691711 448.24781715 372.22691711 448.24781715 372.13562012 449.42918396 C372.00843804 451.07719665 371.88237964 452.72529638 371.75735474 454.37347412 C371.42786566 458.70910656 371.08809549 463.04393802 370.75 467.37890625 C370.65079002 468.65531982 370.65079002 468.65531982 370.54957581 469.95751953 C369.18162651 487.54848072 367.50607263 505.09966555 365.73178101 522.65362549 C364.62775538 533.577442 363.56237652 544.50073376 362.65063477 555.44262695 C362.15468317 561.36671014 361.56196273 567.27572856 360.9375 573.1875 C360.15376042 580.64784152 359.66188308 588.09023015 359.42944336 595.58862305 C359.2472974 600.42353435 358.73725048 605.13748388 358.0625 609.9296875 C356.82198788 618.86462161 356.1548586 627.81856736 355.5 636.8125 C354.75327115 647.00030894 353.91538613 657.15321086 352.74145508 667.30143738 C351.71088191 676.31556257 351.02713248 685.35650283 350.32275391 694.40087891 C349.70720387 702.25799573 349.02892345 710.07908057 348.00390625 717.89453125 C346.80720743 727.0923743 346.11990282 736.31445437 345.4375 745.5625 C345.24894172 748.09363469 345.05919148 750.62466249 344.86671448 753.15550232 C344.74853881 754.71136217 344.63260082 756.26739438 344.51939392 757.82362366 C344.18496129 762.25064842 343.63903245 766.60440629 343 771 C342.82377207 772.98390172 342.66864069 774.96979592 342.53515625 776.95703125 C342.45716797 778.07142578 342.37917969 779.18582031 342.29882812 780.33398438 C342.14419983 782.60995951 341.9905161 784.88599906 341.83789062 787.16210938 C341.3903334 793.53343217 340.80299701 799.86834468 340.0546875 806.2109375 C338.77838518 817.18379916 338.06761848 828.195135 337.31069946 839.2137146 C335.02236976 872.39351055 335.02236976 872.39351055 333.3125 888.6875 C333.19334229 889.82356689 333.07418457 890.95963379 332.95141602 892.13012695 C332.35074012 897.58218233 332.35074012 897.58218233 332 900 C331.89574707 900.72896484 331.79149414 901.45792969 331.68408203 902.20898438 C331.45833496 902.80001953 331.23258789 903.39105469 331 904 C328.15202081 905.1660771 325.51918825 906.02322294 322.5625 906.8125 C321.67941162 907.06257813 320.79632324 907.31265625 319.88647461 907.5703125 C316.92954872 908.40061381 313.9659751 909.20265954 311 910 C309.9584375 910.28278809 308.916875 910.56557617 307.84375 910.85693359 C302.36029886 912.345085 296.87283299 913.81753983 291.3828125 915.28125 C284.87243535 917.02409372 278.39208345 918.86136788 271.91577148 920.72607422 C257.32305276 924.92732562 242.70582198 929.04115937 228.0234375 932.91796875 C218.32063442 935.50622297 208.6669604 938.28174859 199 941 C181.17321064 946.01065623 163.33501652 950.97200142 145.4453125 955.75390625 C135.2554427 958.47955822 125.07722334 961.21358416 114.96948242 964.23120117 C109.43142092 965.88349652 103.87188803 967.44709473 98.29980469 968.98046875 C93.79271539 970.22141168 89.29234992 971.48316514 84.796875 972.765625 C64.49199597 978.54138373 64.49199597 978.54138373 55.0625 980.296875 C51.79271385 981.04759121 48.70548711 982.07268987 45.53417969 983.15722656 C40.77245052 984.74079969 35.94455957 986.10470399 31.125 987.5 C30.11308594 987.79519531 29.10117187 988.09039063 28.05859375 988.39453125 C22.18228031 990.10249943 16.2955019 991.7397734 10.37060547 993.27148438 C7.99415501 993.92126864 7.99415501 993.92126864 5.93798828 995.08789062 C4 996 4 996 0 996 C0 934.95 0 873.9 0 811 C10.67622408 808.0343822 21.33653903 805.08069334 32.0625 802.3125 C33.19365234 802.01794922 34.32480469 801.72339844 35.49023438 801.41992188 C40.75217252 800.05775639 46.01188556 798.7550691 51.32441711 797.60754395 C54.67587994 796.84652811 58.0081492 796.01392096 61.34106445 795.17626953 C62.044846 794.99982816 62.74862755 794.82338678 63.47373581 794.6415987 C70.0667747 792.98697501 76.65605272 791.31755731 83.24398041 789.64270592 C85.31957376 789.11505999 87.39527845 788.58785393 89.4710083 788.06074524 C95.3611921 786.56492679 101.25120365 785.06843083 107.14111328 783.5715332 C122.22840586 779.73740533 137.31708231 775.9092037 152.41796875 772.12890625 C153.52448792 771.8515715 154.63100708 771.57423676 155.77105713 771.28849792 C163.59191415 769.33478528 171.42910969 767.45667316 179.27633667 765.61207581 C184.38047797 764.41174243 189.43593456 763.10819017 194.453125 761.578125 C198.26153742 760.71363874 202.11691624 760.37673279 206 760 C206.07347656 758.30810547 206.07347656 758.30810547 206.1484375 756.58203125 C206.74901268 743.64464095 207.71228525 730.74043083 209.25439453 717.87817383 C210.08805693 710.91572749 210.46205306 703.93556234 210.875 696.9375 C212.03240977 678.03503483 213.83244513 659.20657038 215.7890625 640.37109375 C216.04745288 637.87245553 216.30527011 635.37375796 216.5625 632.875 C216.75078369 631.04654541 216.75078369 631.04654541 216.94287109 629.18115234 C217.97551612 618.86425099 218.66288553 608.54222621 219.30102539 598.19482422 C219.75020302 591.11383638 220.43896159 584.20811325 221.5 577.1953125 C222.50309964 569.66031009 222.77179862 562.02667571 223.24560547 554.44482422 C223.93145231 543.60301171 224.87898727 532.80465461 226 522 C225.00959717 522.13349854 224.01919434 522.26699707 222.9987793 522.40454102 C213.94376135 523.59805379 204.9363302 524.44166554 195.8125 524.9375 C194.43356395 525.0171453 193.05465886 525.09732786 191.67578125 525.17797852 C183.64307774 525.64371735 175.60854821 526.07564181 167.57395935 526.50740051 C161.88244918 526.81397774 156.19117466 527.12476072 150.5 527.4375 C149.35185822 527.50039215 148.20371643 527.5632843 147.02078247 527.62808228 C132.56219722 528.42695893 118.15051098 529.40362346 103.73974609 530.82299805 C94.70397504 531.71185383 85.74073104 532.26916591 76.66699219 532.51391602 C62.6281105 532.98567062 48.63340028 534.38076034 34.64648438 535.62866211 C32.59766022 535.80587273 30.54883224 535.98303912 28.5 536.16015625 C27.14291931 536.28664047 27.14291931 536.28664047 25.75842285 536.41567993 C17.0893611 537.15633933 8.81724797 537 0 537 C0 359.79 0 182.58 0 0 Z " fill="#FEFEFE" transform="translate(740,688)"/>
<path d="M0 0 C49.83 0 99.66 0 151 0 C151 328.02 151 656.04 151 994 C145.92144402 993.3651805 141.7870508 992.81510804 137 991.46875 C135.88214111 991.15736084 134.76428223 990.84597168 133.61254883 990.52514648 C132.42040771 990.18684814 131.2282666 989.8485498 130 989.5 C128.73760498 989.14687744 127.47520996 988.79375488 126.17456055 988.42993164 C122.80083647 987.48602829 119.42912921 986.53512993 116.05804443 985.58184814 C110.65121923 984.05323624 105.24261114 982.53092651 99.8343811 981.0072937 C98.48175928 980.6261064 97.12920027 980.24469617 95.77670288 979.86306763 C85.76144466 977.03761154 75.72777062 974.28820939 65.67529297 971.59790039 C49.12986585 967.16741692 32.58372812 962.71878498 16.17871094 957.7902832 C10.38507382 956.06962196 4.54102847 954.56472446 -1.3125 953.0625 C-8.52917883 951.209353 -15.68908599 949.24708119 -22.8125 947.0625 C-30.25352538 944.78313305 -37.72967677 942.68961214 -45.25 940.6875 C-55.21013487 938.03537988 -65.14305852 935.29957443 -75.0625 932.5 C-76.07526505 932.21431152 -76.07526505 932.21431152 -77.10848999 931.92285156 C-80.45925985 930.97748355 -83.80978255 930.03124364 -87.16015625 929.08447266 C-101.008884 925.17322846 -114.85614786 921.26492711 -128.76953125 917.58935547 C-144.63066664 913.39837683 -160.4314568 909.1895144 -176 904 C-178.17552165 886.39063292 -179.70819031 868.78721886 -180.90942383 851.08789062 C-181.48421637 842.79209405 -182.28013744 834.64142821 -183.54272461 826.41577148 C-184.56042335 818.8137303 -184.80312356 811.13257905 -185.2109375 803.47851562 C-185.62498383 796.31480031 -186.35079194 789.35696958 -187.52294922 782.2800293 C-188.39569227 776.2793625 -188.70036226 770.23677482 -189.0625 764.1875 C-189.55847779 755.05211158 -189.55847779 755.05211158 -190.5 745.95703125 C-191.23304946 740.15563202 -191.55439294 734.3335163 -191.9375 728.5 C-192.54615983 719.53221952 -193.34908472 710.68451407 -194.57421875 701.78125 C-195.05457777 697.51530938 -195.22547539 693.28753134 -195.375 689 C-195.70013142 679.91799577 -196.84916583 670.99494836 -198.0625 662 C-199.68611495 649.94752365 -200.52668324 638.17223497 -200 626 C-193.81592766 625.78651074 -188.34263277 626.55165569 -182.3125 627.875 C-176.90747431 629.03783421 -171.52074063 630.10067919 -166.05078125 630.9140625 C-157.28577406 632.22407974 -148.58622881 633.8769053 -139.875 635.5 C-138.19664891 635.81138299 -136.51826365 636.12258186 -134.83984375 636.43359375 C-132.40496834 636.88485064 -129.97011884 637.3362423 -127.53540039 637.78834534 C-118.77975657 639.41405786 -110.01854773 641.00785129 -101.25 642.5625 C-100.54746094 642.68818359 -99.84492188 642.81386719 -99.12109375 642.94335938 C-94.75696087 643.71659628 -90.39090135 644.39653843 -86 645 C-84.49305561 654.55373479 -83.82530943 663.96132195 -83.5625 673.625 C-83.28616063 683.47971899 -82.56857054 693.20011674 -81.5 703 C-79.97630884 716.99091955 -79.31041065 730.93376699 -79 745 C-77.75476563 745.29390625 -77.75476563 745.29390625 -76.484375 745.59375 C-66.24434467 748.07877828 -56.13003613 750.93586159 -46.00634766 753.85644531 C-37.73360082 756.236473 -29.44156805 758.52812721 -21.125 760.75 C-12.3902714 763.08366655 -3.68222334 765.47724076 5 768 C7.47887012 768.70937043 9.95804024 769.4176933 12.4375 770.125 C16.95833333 771.41666667 21.47916667 772.70833333 26 774 C25.93216309 772.85829346 25.86432617 771.71658691 25.79443359 770.5402832 C25.17125317 759.65989571 24.83612802 748.80184577 24.66870117 737.90603638 C24.31829979 716.10847679 23.45727299 694.33997547 22.5 672.5625 C22.46695015 671.81035091 22.4339003 671.05820183 22.39984894 670.28326035 C22.17474631 665.16922251 21.94739717 660.05528676 21.71875 654.94140625 C21.67153462 653.88478129 21.67153462 653.88478129 21.6233654 652.80681038 C21.32904104 646.22791924 21.03278338 639.64917034 20.71655273 633.07128906 C19.9914386 617.71844292 19.6198948 602.35899459 19.24385262 586.9945879 C18.47527924 553.7341597 18.47527924 553.7341597 17 520.5 C15.9190669 501.30398226 15.4798112 482.09327788 15 462.875 C14.4856053 442.28357681 13.96111184 421.70154152 13 401.125 C11.97738214 379.22919861 11.35173576 357.32524917 10.7561636 335.41447163 C10.65981592 331.87134552 10.56253979 328.32824541 10.46484375 324.78515625 C10.44599058 324.0983333 10.42713741 323.41151035 10.40771294 322.70387459 C10.13737357 312.92878472 9.77280145 303.16089318 9.33956909 293.39172363 C8.94357371 284.22537847 8.76775509 275.05943959 8.61184692 265.88638306 C8.34606839 250.67717742 7.89911054 235.50077695 7.0625 220.3125 C6.03939597 201.67609799 5.57487804 183.03372643 5.12175751 164.37694931 C4.50695465 139.06740656 3.69012936 113.78642086 2.4375 88.5 C2.3710446 87.15469402 2.30459761 85.80938763 2.23815918 84.46408081 C2.17342407 83.15456451 2.10868896 81.84504822 2.04199219 80.49584961 C1.91592429 77.94515425 1.78994536 75.3944545 1.6640625 72.84375 C1.57421082 71.02533348 1.57421082 71.02533348 1.48254395 69.17018127 C0.9919894 59.11602005 0.59674603 49.06204538 0.3125 39 C0.27632568 37.77603516 0.24015137 36.55207031 0.20288086 35.29101562 C-0.0949089 23.52223462 0 11.78196462 0 0 Z " fill="#ECECEC" transform="translate(520,688)"/>
<path d="M0 0 C73.59 0 147.18 0 223 0 C223 31.68 223 63.36 223 96 C221.15086057 97.84913943 218.1211518 97.17339215 215.64428711 97.20532227 C214.98089828 97.21522186 214.31750946 97.22512146 213.63401794 97.23532104 C211.43183005 97.26701737 209.22962055 97.29172534 207.02734375 97.31640625 C205.50419032 97.33696878 203.98104269 97.35796505 202.457901 97.37937927 C198.44168786 97.43467247 194.42542262 97.48404963 190.40911865 97.53222656 C186.31371401 97.58238882 182.21838539 97.63810236 178.12304688 97.69335938 C170.08209545 97.80102954 162.04108059 97.90245467 154 98 C154.36664261 98.44966629 154.73328522 98.89933258 155.11103821 99.36262512 C156.80009636 101.43510145 158.48794478 103.50855987 160.17578125 105.58203125 C160.75235474 106.28912231 161.32892822 106.99621338 161.92297363 107.72473145 C167.07465831 114.05644146 172.05586409 120.50476262 177 127 C178.64313685 129.14790849 180.28957724 131.29326168 181.9375 133.4375 C182.55383301 134.23945801 182.55383301 134.23945801 183.18261719 135.05761719 C188.07327608 141.40976481 193.03805847 147.70350368 198 154 C198.8829351 155.1209972 199.76574884 156.24208999 200.6484375 157.36328125 C201.06249847 157.88618744 201.47655945 158.40909363 201.90316772 158.94784546 C202.80242002 160.09774576 203.68953035 161.25731777 204.56027222 162.42895508 C207.01621253 165.69076784 209.46938544 168.48576258 212.58496094 171.1315918 C221.00531834 178.93286561 223.7342236 186.71957626 224.27452564 197.91288185 C224.5588728 207.31620311 224.31358844 216.71704677 224.01959229 226.11688232 C223.88198837 231.05435622 223.83203385 235.99273406 223.77148438 240.93164062 C223.66882885 248.10932667 223.5411398 255.28563909 223.33569336 262.46118164 C223.30809433 263.59156357 223.30809433 263.59156357 223.27993774 264.74478149 C223.11719243 269.88280757 223.11719243 269.88280757 222 271 C219.21838136 271.09789273 216.46159544 271.12993016 213.67955017 271.12025452 C212.79664844 271.12110894 211.9137467 271.12196337 211.00409037 271.12284368 C208.02215665 271.1245012 205.04027821 271.11897269 202.05834961 271.11352539 C199.93015036 271.11324355 197.80195102 271.11340119 195.67375183 271.1139679 C189.87646683 271.114256 184.07920232 271.10835723 178.2819221 271.10139394 C172.2307195 271.0951625 166.17951648 271.09455677 160.12831116 271.09336853 C148.66064969 271.09025459 137.19299771 271.08204037 125.72534043 271.07201904 C112.67357166 271.06085983 99.62180244 271.05534794 86.57003009 271.05032361 C59.71334692 271.0398578 32.85667675 271.02151155 6 271 C6 241.63 6 212.26 6 182 C40.65 181.505 40.65 181.505 76 181 C75.34 180.34 74.68 179.68 74 179 C72.95759722 177.38875138 71.94048581 175.76107615 70.9375 174.125 C68.40822923 170.10517335 65.75987006 166.2721137 62.875 162.5 C58.98996559 157.40336164 55.34581475 152.17910764 51.75 146.875 C47.23632635 140.22432452 42.64550915 133.63975796 37.9375 127.125 C37.40157227 126.38233887 36.86564453 125.63967773 36.31347656 124.87451172 C34.14736852 121.88974428 31.97271507 118.96682656 29.62890625 116.1171875 C28 114 28 114 28 112 C27.34 111.67 26.68 111.34 26 111 C24.90954775 109.55642203 23.87407318 108.07076266 22.875 106.5625 C22.33617187 105.75941406 21.79734375 104.95632812 21.2421875 104.12890625 C20 102 20 102 20 100 C19.34 100 18.68 100 18 100 C16.51953125 97.9453125 16.51953125 97.9453125 14.8125 95.125 C9.08129962 85.55177454 9.08129962 85.55177454 2 77 C-12.24210683 55.63683976 0 25.67532322 0 0 Z " fill="#000000" transform="translate(744,0)"/>
<path d="M0 0 C30.36 0 60.72 0 92 0 C92 89.43 92 178.86 92 271 C19.73 271 -52.54 271 -127 271 C-127 229.75 -127 188.5 -127 146 C-96.64 146 -66.28 146 -35 146 C-34.67 156.89 -34.34 167.78 -34 179 C-22.78 179 -11.56 179 0 179 C0 119.93 0 60.86 0 0 Z " fill="#000000" transform="translate(577,0)"/>
</svg>
