<?xml version="1.0" encoding="UTF-8"?>
<svg version="1.1" xmlns="http://www.w3.org/2000/svg" width="512" height="512">
<path d="M0 0 C2.3106485 -0.00814015 4.6212892 -0.01882879 6.93191528 -0.03186035 C13.17980654 -0.05911317 19.4271005 -0.04865036 25.67500162 -0.02958584 C32.22596702 -0.01434746 38.77688283 -0.02849603 45.32785034 -0.03790283 C57.02819466 -0.05069711 68.72828862 -0.03091157 80.42858957 -0.00034681 C91.02153732 0.02646897 101.61409057 0.02178854 112.20703125 -0.00585938 C124.53399444 -0.03801847 136.86070643 -0.04989511 149.18770587 -0.03218579 C155.70375656 -0.02284717 162.2195359 -0.02154224 168.735569 -0.04140472 C174.86066284 -0.05877326 180.98501352 -0.04664834 187.11002731 -0.01203918 C189.35372943 -0.00412559 191.59749441 -0.00635006 193.84117126 -0.01961517 C215.94163985 -0.13820398 215.94163985 -0.13820398 223.13232422 6.77636719 C229.1780239 13.36430299 230.45070121 20.41975339 230.32763672 29.11621094 C230.32339188 30.26664635 230.32339188 30.26664635 230.31906128 31.44032288 C230.30795896 33.86500339 230.28287388 36.28930028 230.25732422 38.71386719 C230.24728152 40.36815869 230.23815794 42.02245604 230.22998047 43.67675781 C230.20805238 47.71010641 230.17359265 51.74317199 230.13232422 55.77636719 C231.65200806 55.75280151 231.65200806 55.75280151 233.20239258 55.72875977 C236.99869687 55.67403124 240.79496704 55.63986277 244.59155273 55.61157227 C246.2276803 55.59658262 247.86376837 55.57618386 249.49975586 55.55004883 C268.73999385 55.25061272 268.73999385 55.25061272 277.38232422 60.90136719 C285.39139958 69.27449143 285.88357128 77.47280973 285.79638672 88.60839844 C285.79976069 90.13295375 285.80461813 91.65750643 285.81088257 93.18205261 C285.81821557 96.36015713 285.80765815 99.53755444 285.78417969 102.71557617 C285.75557046 106.78585122 285.77219275 110.85448644 285.80204201 114.92470264 C285.82010913 118.06550978 285.81436208 121.2059276 285.80140305 124.34674644 C285.79807364 125.84783817 285.80213984 127.34896551 285.81380081 128.85001564 C285.8265153 130.94466642 285.80713799 133.03665135 285.77929688 135.13110352 C285.77531891 136.32085281 285.77134094 137.51060211 285.76724243 138.73640442 C285.13232422 141.77636719 285.13232422 141.77636719 282.77938843 144.19169617 C280.13232422 145.77636719 280.13232422 145.77636719 277.13232422 145.77636719 C277.13232422 151.38636719 277.13232422 156.99636719 277.13232422 162.77636719 C278.78232422 163.10636719 280.43232422 163.43636719 282.13232422 163.77636719 C283.92105442 165.00191671 283.92105442 165.00191671 285.13232422 166.77636719 C285.50952238 169.21084279 285.50952238 169.21084279 285.51264095 172.16757488 C285.52108089 173.29375121 285.52952083 174.41992753 285.53821653 175.58023041 C285.53220649 176.82281123 285.52619644 178.06539205 285.52000427 179.34562683 C285.52808258 181.31948607 285.52808258 181.31948607 285.53632408 183.33322126 C285.55083341 186.99377714 285.54651695 190.65410892 285.53915727 194.31467736 C285.53444119 198.25962153 285.5469218 202.20451612 285.55717468 206.14944458 C285.57440072 213.88212933 285.57519457 221.61473296 285.56996178 229.34743192 C285.56592471 235.63305599 285.56735813 241.91865603 285.57271004 248.20427895 C285.57345846 249.09800437 285.57420688 249.9917298 285.57497798 250.91253782 C285.57650943 252.72803837 285.57804778 254.54353892 285.57959295 256.35903946 C285.59333259 273.39917468 285.58787079 290.43926404 285.57640774 307.47939823 C285.56648117 323.06787724 285.57940344 338.65623745 285.60334193 354.24469813 C285.62772909 370.2458197 285.63734129 386.24688593 285.6306892 402.24802572 C285.62719518 411.2333654 285.62944071 420.21861379 285.64694023 429.20393944 C285.66165774 436.85592527 285.66230397 444.50775556 285.64486932 452.15973832 C285.63635179 456.06353634 285.63422775 459.96705648 285.64952087 463.87084007 C285.66335666 467.44695492 285.65861962 471.02255356 285.63928164 474.59863845 C285.633739 476.50036247 285.64780288 478.40211269 285.66263574 480.30378693 C285.59358542 488.31895314 284.5989273 493.8204424 279.16748047 500.01855469 C278.51650391 500.55738281 277.86552734 501.09621094 277.19482422 501.65136719 C276.54642578 502.20566406 275.89802734 502.75996094 275.22998047 503.33105469 C271.13723977 506.15100638 267.53755339 507.02634851 262.60434246 507.03363609 C260.94568048 507.04330943 260.94568048 507.04330943 259.25351018 507.05317819 C258.04399168 507.05008099 256.83447318 507.04698378 255.58830261 507.04379272 C254.29927247 507.04832384 253.01024233 507.05285495 251.68215066 507.05752337 C248.10596923 507.06975868 244.52988132 507.06949229 240.95368373 507.06713462 C237.09603551 507.06672659 233.23841732 507.07776432 229.38078308 507.08724976 C221.82351853 507.10386369 214.26628517 507.10935948 206.70900389 507.11047451 C200.56597542 507.11142481 194.42295724 507.1155342 188.27993202 507.12187576 C170.86333387 507.13948934 153.44676036 507.14871447 136.03015324 507.14721482 C135.09119144 507.1471349 134.15222964 507.14705499 133.18481445 507.14697266 C131.77465204 507.14685001 131.77465204 507.14685001 130.33600149 507.14672489 C115.10007855 507.14591199 99.86425446 507.16505054 84.62836011 507.19324939 C68.98426446 507.22197527 53.34021703 507.23578984 37.69609433 507.23406184 C28.91310376 507.23339783 20.13021681 507.2388949 11.34724998 507.26041794 C3.86915905 507.27862586 -3.60878128 507.28298032 -11.08688477 507.26939909 C-14.90159301 507.26286739 -18.71601228 507.26275923 -22.53069305 507.28010559 C-26.66824865 507.29872647 -30.80513473 507.28628717 -34.94270325 507.27084351 C-36.14552958 507.28113063 -37.34835591 507.29141776 -38.58763152 507.30201662 C-46.36360767 507.23779213 -51.70901924 506.20787161 -57.85595703 501.13574219 C-58.29294922 500.60464844 -58.72994141 500.07355469 -59.18017578 499.52636719 C-59.63005859 499.00558594 -60.07994141 498.48480469 -60.54345703 497.94824219 C-64.30625859 491.77680365 -65.30727812 486.18637796 -65.16064453 479.12011719 C-65.15639969 478.33237915 -65.15215485 477.54464111 -65.14778137 476.73303223 C-65.13115195 474.24711129 -65.09353192 471.76203799 -65.05517578 469.27636719 C-65.0401085 467.57846233 -65.02642369 465.88054461 -65.01416016 464.18261719 C-64.98130044 460.04688 -64.92963052 455.91176668 -64.86767578 451.77636719 C-65.88079834 451.79207764 -66.8939209 451.80778809 -67.93774414 451.82397461 C-71.73404844 451.87870314 -75.5303186 451.9128716 -79.3269043 451.94116211 C-80.96303187 451.95615175 -82.59911993 451.97655051 -84.23510742 452.00268555 C-105.96051899 452.34079845 -105.96051899 452.34079845 -114.36376953 444.52246094 C-119.9642636 438.02006912 -121.02297198 431.04876408 -120.96533203 422.72949219 C-120.96391708 421.95829041 -120.96250214 421.18708862 -120.96104431 420.39251709 C-120.95546112 417.9370938 -120.94291173 415.48176277 -120.93017578 413.02636719 C-120.92515861 411.35839976 -120.92059608 409.69043089 -120.91650391 408.02246094 C-120.90549719 403.94039432 -120.88824415 399.85839638 -120.86767578 395.77636719 C-121.87277191 395.78747025 -122.87786804 395.7985733 -123.91342163 395.81001282 C-133.41683467 395.91166913 -142.92013642 395.9864665 -152.42397118 396.03542805 C-157.30924638 396.06144667 -162.19408028 396.09670231 -167.07910156 396.15356445 C-171.79943767 396.20816155 -176.51935113 396.23784581 -181.23997879 396.2507534 C-183.03482332 396.25994382 -184.82964649 396.27789016 -186.62430954 396.30501747 C-206.71465347 396.59642993 -206.71465347 396.59642993 -214.78598022 388.96186829 C-219.31945872 384.13086086 -221.10984723 379.54085431 -221.14855957 372.88948059 C-221.16569 371.12125443 -221.16569 371.12125443 -221.1831665 369.31730652 C-221.18540222 368.03253922 -221.18763794 366.74777191 -221.18994141 365.42407227 C-221.19920542 364.05040966 -221.20925578 362.67675216 -221.22003174 361.30310059 C-221.24621348 357.5776393 -221.25915699 353.85225 -221.26805305 350.12671113 C-221.27392628 347.79569875 -221.28213817 345.46470579 -221.2910614 343.13370323 C-221.31839614 335.8305244 -221.33773587 328.52739026 -221.34546518 321.22416383 C-221.35441823 312.81234546 -221.38948084 304.40117844 -221.44746637 295.98955804 C-221.49080144 289.47554106 -221.51087915 282.96170663 -221.51354742 276.44754714 C-221.51563668 272.56259845 -221.52730219 268.67826264 -221.56318665 264.79346657 C-221.59632535 261.13484781 -221.6003765 257.47729667 -221.58290863 253.81858063 C-221.58065166 251.84999781 -221.60795363 249.88144905 -221.63641357 247.91307068 C-221.5603487 239.76649486 -220.07566063 234.15605805 -214.86767578 227.77636719 C-208.49720136 221.81327491 -201.33454365 220.4637202 -192.72924805 220.54931641 C-191.94794022 220.54902435 -191.16663239 220.5487323 -190.36164856 220.5484314 C-187.80234316 220.5498147 -185.243336 220.56532834 -182.68408203 220.58105469 C-180.90046854 220.58478838 -179.11685298 220.58763367 -177.33323669 220.58963013 C-172.65612042 220.59723855 -167.97912986 220.6168629 -163.30206299 220.63903809 C-158.52251892 220.65955682 -153.74295439 220.6686447 -148.96337891 220.67871094 C-139.59808953 220.70011157 -130.23289314 220.7342136 -120.86767578 220.77636719 C-120.87044116 220.17744471 -120.87320654 219.57852222 -120.87605572 218.96145058 C-120.94245656 204.35387606 -120.99202475 189.74631049 -121.0231123 175.13862038 C-121.03854758 168.07429186 -121.05957276 161.01006441 -121.09399414 153.94580078 C-121.12721455 147.12472963 -121.14454393 140.30376341 -121.15230751 133.48261642 C-121.15783822 130.88398972 -121.16863828 128.28536857 -121.18486595 125.68678665 C-121.20673412 122.0389504 -121.20963871 118.39154391 -121.20825195 114.74365234 C-121.21903778 113.67621796 -121.22982361 112.60878357 -121.24093628 111.50900269 C-121.17994098 96.6207883 -115.64440822 87.09706021 -105.33032227 76.80322266 C-104.58808914 76.0509137 -103.84585602 75.29860474 -103.08113098 74.52349854 C-100.64154385 72.05557304 -98.19094774 69.59896568 -95.73876953 67.14355469 C-94.02566576 65.42080007 -92.31278378 63.69782488 -90.60011292 61.97463989 C-87.01355416 58.37015498 -83.42088552 54.77188788 -79.82446289 51.17724609 C-75.23529406 46.58838189 -70.66710252 41.97923788 -66.10400295 37.36446953 C-62.57365603 33.80063567 -59.02962393 30.25065339 -55.48170662 26.704319 C-53.79251741 25.0116084 -52.10814664 23.3140742 -50.42889214 21.61150742 C-48.07033125 19.22328714 -45.6931869 16.85513597 -43.31079102 14.49072266 C-42.63243195 13.79550507 -41.95407288 13.10028748 -41.25515747 12.38400269 C-28.78656313 0.15114184 -16.57107482 -0.09816531 0 0 Z " fill="#010102" transform="translate(223.86767578125,2.2236328125)"/>
<path d="M0 0 C0.87785363 -0.00538554 1.75570726 -0.01077108 2.66016251 -0.01631981 C5.60741017 -0.03064948 8.55421186 -0.02348331 11.5014801 -0.01637268 C13.61216087 -0.02207362 15.72283856 -0.02903681 17.83351135 -0.03717041 C23.57107481 -0.05514734 29.30848572 -0.0539249 35.04606891 -0.04822803 C39.83255179 -0.04514273 44.6190051 -0.05122127 49.40548378 -0.05726677 C60.69548273 -0.07132528 71.98540603 -0.06973966 83.27540588 -0.05836487 C94.93046457 -0.0468819 106.58529321 -0.06095943 118.24032158 -0.08776134 C128.24041411 -0.10989826 138.24043432 -0.11656026 148.24054962 -0.11068493 C154.21605025 -0.1073094 160.19140339 -0.10977 166.16688347 -0.12693596 C171.78528101 -0.14237096 177.40333701 -0.1384877 183.02172089 -0.11963081 C185.0853093 -0.1159354 187.14892283 -0.11908098 189.21248817 -0.1295166 C192.02665861 -0.14266297 194.83968779 -0.13123544 197.65380859 -0.11352539 C198.88270039 -0.1279329 198.88270039 -0.1279329 200.13641828 -0.14263147 C203.65728615 -0.09694933 206.04406362 0.18295585 209.09885788 1.98870701 C212.14805885 5.1808645 212.01585879 6.89879257 212.01680851 11.27182007 C212.02377612 11.96747027 212.03074372 12.66312047 212.03792247 13.37985098 C212.05523771 15.72277769 212.03676598 18.06406631 212.01858521 20.40696716 C212.02362782 22.09874442 212.03085444 23.79051636 212.04008335 25.48227596 C212.05907327 30.14033981 212.0467341 34.79788117 212.02936041 39.45593214 C212.01602526 44.47578212 212.03140962 49.49555369 212.04318237 54.51539612 C212.06159217 64.35286919 212.05302438 74.19014406 212.03509415 84.02761102 C212.02108664 92.02044086 212.01717136 100.01321679 212.02053642 108.00605774 C212.02101386 109.142259 212.02149131 110.27846025 212.02198322 111.44909185 C212.02300951 113.7570328 212.02406487 116.06497375 212.02514898 118.37291467 C212.0337228 138.79551943 212.01701891 159.21802831 211.98731995 179.64060974 C211.95848092 199.47203093 211.95139813 219.30331396 211.96681213 239.13475037 C211.98356107 260.71335349 211.98762185 282.29189097 211.97010177 303.8704958 C211.96825732 306.17009798 211.9664226 308.46970017 211.9645977 310.76930237 C211.96368561 311.90084478 211.96277352 313.03238719 211.96183379 314.19821876 C211.95622026 322.18438791 211.95954318 330.17052509 211.96614265 338.1566925 C211.97386234 347.88496347 211.96717257 357.61309827 211.94196761 367.34134173 C211.92944083 372.30788662 211.92336443 377.27421918 211.93450928 382.24077225 C211.94451006 386.78315215 211.93618145 391.32510758 211.9129281 395.86743557 C211.90774548 397.51474462 211.90937231 399.16209134 211.91832275 400.80938423 C211.92944509 403.04128397 211.91616709 405.27173012 211.89655399 407.50354004 C211.89536251 408.74533555 211.89417103 409.98713106 211.89294344 411.26655674 C211.39039612 414.38768005 211.39039612 414.38768005 209.69043535 416.78647852 C206.9120101 418.72071456 205.4489514 418.88870715 202.08361053 418.89104462 C200.46081059 418.9066911 200.46081059 418.9066911 198.8052268 418.92265368 C197.61730362 418.91373079 196.42938045 418.9048079 195.20545959 418.89561462 C193.31183992 418.90497457 193.31183992 418.90497457 191.37996531 418.9145236 C187.87349465 418.93125083 184.36745839 418.92295553 180.86098599 418.91057873 C177.08040981 418.90154428 173.29990937 418.91548995 169.51934814 418.92649841 C162.1123016 418.94430547 154.70541699 418.94043397 147.29836404 418.92884785 C141.27969619 418.91982237 135.26107379 418.91858568 129.24240112 418.92294312 C128.38651135 418.92355605 127.53062158 418.92416898 126.64879575 418.92480049 C124.9101918 418.92607936 123.17158786 418.92737621 121.43298393 418.92869085 C105.12163878 418.94010305 88.81038348 418.92697292 72.49905306 418.90548939 C58.49648048 418.88761781 44.49404053 418.89072174 30.49147034 418.90916443 C14.2393753 418.93055986 -2.01264094 418.93900436 -18.2647481 418.92671537 C-19.99703501 418.92544115 -21.72932194 418.92418367 -23.46160889 418.92294312 C-24.31397616 418.92232601 -25.16634343 418.92170891 -26.04454002 418.92107311 C-32.05751406 418.91761622 -38.07043822 418.92345584 -44.08340454 418.93286133 C-51.40903897 418.94406797 -58.73450192 418.94106952 -66.06011665 418.91973835 C-69.79937803 418.9092098 -73.53835328 418.90513649 -77.27761269 418.91833496 C-81.32688115 418.93241174 -85.37542415 418.91562957 -89.42466736 418.89561462 C-91.20655213 418.90899895 -91.20655213 418.90899895 -93.02443457 418.92265368 C-94.1063012 418.91222269 -95.18816783 418.9017917 -96.3028183 418.89104462 C-97.70529052 418.8900705 -97.70529052 418.8900705 -99.13609552 418.88907671 C-102.40073392 418.22731271 -103.59518172 416.99693951 -105.60960388 414.38768005 C-105.95883984 411.56750578 -106.07809597 409.15047743 -106.00022888 406.34080505 C-105.99456909 405.56960327 -105.9889093 404.79840149 -105.983078 404.00382996 C-105.96073978 401.54780726 -105.91055151 399.0932595 -105.85960388 396.63768005 C-105.83953543 394.96973242 -105.82128525 393.30176185 -105.80491638 391.6337738 C-105.7608838 387.55117682 -105.69187671 383.46967824 -105.60960388 379.38768005 C-103.63528429 379.38409752 -103.63528429 379.38409752 -101.62107944 379.38044262 C-70.36344914 379.32305916 -39.10589609 379.25031183 -7.84834838 379.15869377 C-3.9994801 379.14742587 -0.15061145 379.13628737 3.69825745 379.12522888 C4.84759825 379.12192336 4.84759825 379.12192336 6.02015806 379.11855105 C18.42009844 379.08319707 30.82003875 379.05832222 43.22001081 379.03733303 C55.94742422 379.01555584 68.67477233 378.98248721 81.40213019 378.93897849 C89.25299183 378.9124948 97.10377213 378.89477528 104.95467622 378.88833401 C110.97894128 378.882447 117.00304626 378.86083558 123.02725601 378.83340454 C125.49551294 378.8246157 127.96379402 378.82090348 130.43206596 378.82267189 C133.80538792 378.82432554 137.17814693 378.80761648 140.5513916 378.78640747 C141.52514974 378.79125505 142.49890788 378.79610262 143.50217384 378.8010971 C151.07369786 378.72268691 157.33321459 377.40657351 163.70289612 373.20018005 C170.07535177 366.53133111 171.53801677 359.47011597 171.62867737 350.48143005 C171.63674911 349.71971497 171.64482086 348.95799988 171.65313721 348.17320251 C171.66693523 346.56616974 171.67767644 344.95910819 171.68556213 343.35203552 C171.69711874 341.70904453 171.71762838 340.06609214 171.74708557 338.42332458 C171.78968857 336.04660088 171.80591626 333.67098775 171.81617737 331.29393005 C171.8424395 330.19534668 171.8424395 330.19534668 171.86923218 329.0745697 C171.85456401 325.62752599 171.65781988 323.74126305 169.55128479 320.95603943 C167.38602757 319.21882335 167.38602757 319.21882335 164.39039612 318.38768005 C164.22823548 315.46878857 164.1094841 312.5588878 164.01539612 309.63768005 C163.96512268 308.81268005 163.91484924 307.98768005 163.86305237 307.13768005 C163.80525547 304.74874171 163.82177614 302.71112525 164.39039612 300.38768005 C167.33961487 298.0243988 167.33961487 298.0243988 170.39039612 296.38768005 C171.80389381 292.99349785 171.80389381 292.99349785 171.39039612 289.38768005 C169.23607272 286.70933205 167.46530773 284.92513586 164.39039612 283.38768005 C164.22813893 280.63531732 164.10946332 277.89250529 164.01539612 275.13768005 C163.96512268 274.36037537 163.91484924 273.58307068 163.86305237 272.7822113 C163.80465697 270.50479069 163.82399309 268.59698966 164.39039612 266.38768005 C167.35133362 263.96580505 167.35133362 263.96580505 170.39039612 262.38768005 C172.74359328 257.68128574 171.70268019 250.63375331 171.74049377 245.40525818 C171.75695508 243.74105245 171.78411348 242.07691449 171.82252502 240.41307068 C172.06491124 229.84924691 172.24464457 220.68215775 164.60475159 212.46775818 C158.20733965 206.34833015 151.29097632 206.09268888 142.83622742 206.10920715 C141.77346081 206.10341475 140.7106942 206.09762235 139.61572254 206.09165442 C136.05506865 206.07465099 132.49454436 206.07177757 128.93385315 206.0688324 C126.38127321 206.05953448 123.82869632 206.04936601 121.27612305 206.03839111 C115.78083816 206.01672365 110.28558917 206.00111313 104.79027176 205.99102402 C96.84501925 205.97642647 88.89983141 205.95088663 80.95461689 205.92269273 C68.06343544 205.87724429 55.17224466 205.84062143 42.28102112 205.80955505 C29.75984562 205.77936153 17.23869291 205.74500758 4.71754456 205.70506287 C3.55946129 205.70137054 3.55946129 205.70137054 2.37798239 205.69760363 C-1.49526848 205.68522887 -5.36851908 205.67277237 -9.24176955 205.66027522 C-41.36435005 205.55673659 -73.48695544 205.46752372 -105.60960388 205.38768005 C-105.70308692 191.39264884 -105.7733364 177.39766612 -105.81685257 163.40238667 C-105.83773701 156.90396619 -105.86607098 150.40575529 -105.91136169 143.90745544 C-105.95478785 137.63752364 -105.97873453 131.36779358 -105.98911285 125.09772301 C-105.99650995 122.70427969 -106.01095451 120.31084756 -106.03252411 117.91749001 C-106.06151419 114.5678728 -106.06556159 111.21909175 -106.06370544 107.86936951 C-106.07808655 106.87746613 -106.09246765 105.88556274 -106.10728455 104.86360168 C-106.08132249 100.5405628 -106.04131355 98.08743637 -103.73216248 94.34454346 C-97.25128888 88.3695921 -90.63486531 88.98939647 -82.25022888 89.05174255 C-80.26410014 89.0424308 -78.27797105 89.03308962 -76.29185104 89.02206993 C-71.41760983 88.99973766 -66.5434133 89.00954449 -61.66917419 89.02732849 C-58.92919504 89.03618503 -56.18980753 89.03160071 -53.44987488 89.01350403 C-50.87883212 88.99771089 -48.30756093 89.00205644 -45.73661804 89.02967834 C-37.37372347 88.95915684 -30.45601406 87.62514176 -24.00004578 81.98036194 C-17.09393385 74.3475164 -17.19053947 66.59597563 -17.23851013 56.82518005 C-17.22557622 54.83072616 -17.21261965 52.83627211 -17.19834042 50.84182739 C-17.16844081 45.94993895 -17.17182991 41.0579605 -17.17381287 36.16600037 C-17.17385419 33.41234318 -17.16324193 30.65907702 -17.14205933 27.90550232 C-17.12339825 25.32012014 -17.12144015 22.73454918 -17.13830566 20.14915466 C-17.07206013 12.37226859 -16.57170271 7.4802447 -11.00904751 1.73441982 C-7.45659074 -0.25947357 -3.96758122 -0.02902688 0 0 Z " fill="#D1DAF9" transform="translate(225.60960388183594,18.612319946289063)"/>
<path d="M0 0 C1.23800273 -0.01104769 2.47600547 -0.02209538 3.75152344 -0.03347784 C5.12762028 -0.02552029 6.50371497 -0.01718259 7.87980747 -0.00850582 C9.33988271 -0.01382921 10.79995247 -0.02089369 12.26001173 -0.02955288 C16.27759559 -0.04823507 20.29481223 -0.04185623 24.31241167 -0.03139985 C28.64311713 -0.02442355 32.97374595 -0.04039381 37.30442905 -0.05339718 C45.79064325 -0.07506898 54.27672352 -0.07490214 62.76295631 -0.06677163 C69.65880834 -0.06047842 76.55462123 -0.06160243 83.45047283 -0.06804371 C84.43096514 -0.06894536 85.41145744 -0.06984702 86.42166163 -0.070776 C88.41336485 -0.07262715 90.40506806 -0.07448971 92.39677126 -0.07636356 C111.08545013 -0.09295317 129.77405357 -0.08421302 148.46272791 -0.06737798 C165.56959087 -0.05268067 182.6762782 -0.0673078 199.78311854 -0.09614814 C217.33803116 -0.12552404 234.89286266 -0.13651966 252.44779879 -0.12696594 C254.43258701 -0.12594336 256.41737525 -0.12494875 258.40216351 -0.12398243 C259.86708079 -0.12326784 259.86708079 -0.12326784 261.36159236 -0.12253882 C268.25025281 -0.12037226 275.13883667 -0.13019164 282.02748013 -0.14475346 C290.42102372 -0.16224853 298.81434336 -0.16220022 307.20787805 -0.1394018 C311.49210122 -0.12823366 315.7759294 -0.12515486 320.06013584 -0.14370251 C323.98031355 -0.16045604 327.89975024 -0.15422691 331.81987948 -0.12948572 C333.23975544 -0.124585 334.65969059 -0.12816548 336.07951724 -0.14097316 C348.02253181 -0.24095117 348.02253181 -0.24095117 351.32984352 2.81211281 C353.53383329 6.38173535 353.68689743 9.46986206 353.6299448 13.54522038 C353.64032276 14.30789219 353.65070072 15.070564 353.66139317 15.85634708 C353.69099469 18.2817472 353.68770986 20.70561031 353.68072605 23.13115788 C353.68962221 25.56341496 353.70556981 27.99526375 353.73219395 30.42739201 C353.74709787 31.93759656 353.75091866 33.44796059 353.74241734 34.95821476 C353.76279235 38.69528426 353.86451188 40.31308663 355.99322605 43.50615788 C359.56092158 44.24222286 359.56092158 44.24222286 362.99322605 44.50615788 C362.33322605 44.83615788 361.67322605 45.16615788 360.99322605 45.50615788 C360.99322605 51.11615788 360.99322605 56.72615788 360.99322605 62.50615788 C362.64322605 63.16615788 364.29322605 63.82615788 365.99322605 64.50615788 C367.86822605 66.19365788 367.86822605 66.19365788 368.99322605 68.50615788 C368.99322605 72.00615788 368.99322605 72.00615788 367.99322605 75.50615788 C365.55572605 77.94365788 365.55572605 77.94365788 362.99322605 79.50615788 C362.33322605 79.50615788 361.67322605 79.50615788 360.99322605 79.50615788 C360.99322605 85.44615788 360.99322605 91.38615788 360.99322605 97.50615788 C359.34322605 98.16615788 357.69322605 98.82615788 355.99322605 99.50615788 C353.48954181 102.00984211 353.75150183 103.52453177 353.71676731 106.94080448 C353.71826283 108.05016613 353.71826283 108.05016613 353.71978855 109.18193913 C353.6994928 110.74770139 353.67864189 112.31345655 353.65728855 113.87920475 C353.63471843 116.34793432 353.61823146 118.81638274 353.61236668 121.28521061 C353.60282132 123.66797118 353.56901367 126.04946377 353.53228855 128.43193913 C353.53733402 129.16544086 353.54237949 129.8989426 353.54757786 130.65467167 C353.45404288 135.54814167 352.48238711 138.07280058 348.99322605 141.50615788 C346.31371065 142.84591557 344.26307541 142.63534367 341.26098919 142.64037895 C340.03331864 142.6448368 338.8056481 142.64929464 337.54077542 142.65388757 C336.16596769 142.65379826 334.79115997 142.6536084 333.41635227 142.6533289 C331.9655462 142.65662655 330.51474104 142.6603519 329.06393707 142.66447037 C325.06282285 142.67450953 321.06172364 142.67821023 317.06059861 142.68085968 C312.75103537 142.684757 308.44148408 142.69433563 304.13192844 142.70307255 C293.71812173 142.72285182 283.30431402 142.73290442 272.89049321 142.74180034 C267.99071458 142.74618031 263.09093703 142.75154782 258.19115925 142.75678921 C241.91107819 142.77380194 225.63099782 142.78829766 209.35090923 142.79553795 C205.12442238 142.79744795 200.89793554 142.79936827 196.67144871 142.80132389 C195.09567448 142.8020495 195.09567448 142.8020495 193.48806642 142.80278977 C176.45803156 142.81109584 159.42806682 142.83644229 142.3980626 142.86890457 C124.92798683 142.90193525 107.45794675 142.91998304 89.98783958 142.92318219 C80.17317571 142.92535085 70.35861411 142.93415153 60.5439806 142.95964336 C52.1880992 142.98129581 43.83234492 142.98942775 35.47643866 142.97967658 C31.21061853 142.97511614 26.94506097 142.97711868 22.67927647 142.99643803 C18.77707115 143.01395872 14.8753221 143.01316329 10.97311269 142.99754073 C9.5585695 142.99514767 8.14399563 142.99957544 6.72949959 143.01136938 C4.81210378 143.0263711 2.89455325 143.01448767 0.9771452 143.0011425 C-0.08954423 143.00211931 -1.15623365 143.00309612 -2.255247 143.00410253 C-5.69199414 142.38215337 -6.84455963 141.18770982 -9.00677395 138.50615788 C-10.2841562 135.95139337 -10.14129148 134.14270468 -10.15394497 131.28133488 C-10.16110027 130.17369785 -10.16825558 129.06606083 -10.17562771 127.92485905 C-10.17831661 126.70403629 -10.18100552 125.48321354 -10.1837759 124.22539616 C-10.1936327 122.30338886 -10.1936327 122.30338886 -10.20368862 120.34255314 C-10.2211015 116.82186039 -10.23165083 113.30118121 -10.23989415 109.78045607 C-10.245043 107.58167917 -10.25111874 105.38290649 -10.25740528 103.18413258 C-10.27645694 96.30703933 -10.29068893 89.42995683 -10.29901725 82.55284226 C-10.30879497 74.60972555 -10.33512825 66.66688711 -10.37551814 58.72386849 C-10.40565467 52.58708364 -10.4204837 46.45037869 -10.42379826 40.31352127 C-10.42615131 36.64682512 -10.43514434 32.98042628 -10.46025944 29.31380939 C-10.48781909 25.22426349 -10.48371665 21.13534142 -10.47674465 17.04570866 C-10.48955471 15.82893436 -10.50236477 14.61216007 -10.51556301 13.35851383 C-10.50861919 12.24523716 -10.50167538 11.13196049 -10.49452114 9.98494816 C-10.49690949 9.01781958 -10.49929785 8.05069099 -10.50175858 7.05425549 C-9.36150334 1.18441331 -5.46102953 0.00607458 0 0 Z " fill="#7E73FA" transform="translate(29.006773948669434,239.49384212493896)"/>
<path d="M0 0 C5.05365292 -0.09897181 10.10674024 -0.17151603 15.16113281 -0.21972656 C16.87998279 -0.23982628 18.59876452 -0.26711089 20.31738281 -0.30175781 C22.78988489 -0.35035034 25.2614821 -0.37298435 27.734375 -0.390625 C28.88459137 -0.42159271 28.88459137 -0.42159271 30.05804443 -0.45318604 C33.60138946 -0.45467196 35.60183645 -0.29581594 38.4854269 1.84654999 C40.52092006 4.74065445 40.49882411 6.65051293 40.49829102 10.17382812 C40.50832657 11.42192261 40.51836212 12.67001709 40.52870178 13.95593262 C40.52262248 14.95190712 40.52262248 14.95190712 40.51642036 15.96800232 C40.503772 18.05338358 40.51509374 20.13744476 40.53245544 22.22277832 C40.55914358 25.89723508 40.56475162 29.57136744 40.56335449 33.24591064 C40.56112504 39.12705276 40.57525784 45.00779362 40.61894035 50.88877869 C40.62877212 52.94075657 40.6200659 54.99210259 40.61024475 57.04406738 C40.62056984 58.91620911 40.62056984 58.91620911 40.63110352 60.82617188 C40.63014175 61.92441284 40.62917999 63.02265381 40.62818909 64.1541748 C41.04532917 67.34694756 41.77503198 68.70974706 44 71 C46.09415804 71.79623822 46.09415804 71.79623822 48 72 C48.16216064 74.91889148 48.28091202 77.82879225 48.375 80.75 C48.42527344 81.575 48.47554688 82.4 48.52734375 83.25 C48.58516902 85.64011128 48.56713162 87.67509861 48 90 C45.0390625 92.515625 45.0390625 92.515625 42 94 C40.31882868 95.68117132 40.87219434 97.75307772 40.86971474 100.05978775 C40.86427822 101.71450368 40.86427822 101.71450368 40.85873187 103.40264821 C40.85980012 104.62975538 40.86086837 105.85686255 40.86196899 107.12115479 C40.85914771 108.41296748 40.85632643 109.70478017 40.85341966 111.03573871 C40.8456359 114.63812906 40.84404562 118.2405004 40.84336853 121.84289813 C40.84153423 125.7216823 40.83393043 129.60045519 40.82688904 133.47923279 C40.81534525 140.20615753 40.80711041 146.93307975 40.80076981 153.66001129 C40.79046134 164.2890438 40.76990218 174.91804485 40.74765015 185.54705811 C40.7401698 189.18066777 40.73275615 192.81427757 40.72536278 196.44788742 C40.72258693 197.81014553 40.72258693 197.81014553 40.719755 199.19992401 C40.69881329 209.54587726 40.67999228 219.89183401 40.66210938 230.23779297 C40.66047119 231.1839408 40.65883301 232.13008863 40.65714519 233.1049076 C40.63086153 248.43682856 40.61221846 263.76875192 40.59551747 279.10068586 C40.57810711 294.82941268 40.54927211 310.55809211 40.5106281 326.28678107 C40.48720441 335.99487895 40.47323141 345.70289956 40.47130047 355.41102591 C40.4691938 362.0633311 40.45628735 368.71555943 40.43482114 375.36783013 C40.42277275 379.20840674 40.41565358 383.04883073 40.42153358 386.88942528 C40.42778965 391.05007086 40.41104162 395.21030412 40.39199829 399.37091064 C40.39752799 400.58909493 40.40305768 401.80727921 40.40875494 403.06237817 C40.3999151 404.17595311 40.39107526 405.28952805 40.38196754 406.43684769 C40.38061102 407.39737777 40.37925449 408.35790785 40.37785685 409.34754491 C39.9222099 412.54606592 38.93326849 414.4262207 37 417 C33.99300875 418.00233042 31.99283557 418.13008743 28.8502903 418.1398077 C27.77799821 418.14549894 26.70570611 418.15119018 25.60092032 418.15705389 C24.41854832 418.15823376 23.23617631 418.15941364 22.01797485 418.16062927 C20.13894582 418.168261 20.13894582 418.168261 18.22195661 418.17604691 C14.738108 418.18996054 11.25426985 418.19753867 7.77040052 418.2040199 C4.78398697 418.21038914 1.7975906 418.22045937 -1.18881224 418.23058056 C-11.02674347 418.26390615 -20.86468514 418.28542362 -30.7026543 418.30378041 C-33.26335471 418.30857487 -35.8240547 418.31355823 -38.38475466 418.31858563 C-54.28010192 418.34955051 -70.1754528 418.37624051 -86.07082176 418.39300442 C-89.75261822 418.39695402 -93.43441461 418.400957 -97.11621094 418.4050293 C-98.48887695 418.40654184 -98.48887695 418.40654184 -99.8892736 418.40808494 C-114.72323262 418.42510261 -129.55702513 418.46622471 -144.3909028 418.51705229 C-159.61341849 418.56878353 -174.83584843 418.59794051 -190.05845129 418.6052013 C-198.60838653 418.60986864 -207.15804886 418.62467325 -215.70789719 418.6649456 C-222.98706639 418.69919091 -230.26591345 418.71320731 -237.54515861 418.70052146 C-241.26039901 418.69468192 -244.97495765 418.69864779 -248.6900959 418.7286911 C-252.71520507 418.76097618 -256.73881298 418.74694972 -260.76400757 418.72825623 C-261.94191813 418.74505115 -263.11982869 418.76184608 -264.33343351 418.77914995 C-271.84288822 418.69159493 -271.84288822 418.69159493 -274.84434247 416.8976537 C-277.8736098 413.75545461 -278.56884671 410.39483837 -278.56648254 406.13638306 C-278.54067612 405.42364227 -278.51486969 404.71090149 -278.48828125 403.9765625 C-278.47766914 402.85729874 -278.47766914 402.85729874 -278.46684265 401.71542358 C-278.43903177 399.35089408 -278.376328 396.9888037 -278.3125 394.625 C-278.2873995 393.01435732 -278.26458939 391.40367721 -278.24414062 389.79296875 C-278.1892501 385.86105088 -278.10307849 381.93093777 -278 378 C-277.45326537 377.99940291 -276.90653074 377.99880582 -276.3432284 377.99819064 C-243.92615093 377.96228248 -211.50918551 377.90562172 -179.09219769 377.82207905 C-175.19826563 377.81206181 -171.30433316 377.80221764 -167.41040039 377.79248047 C-166.63520134 377.7905391 -165.8600023 377.78859772 -165.06131237 377.78659752 C-152.51586888 377.75559184 -139.97044367 377.73860087 -127.42496908 377.72680578 C-114.54838221 377.71438679 -101.67189117 377.68686853 -88.7953648 377.64538693 C-80.85234816 377.62027288 -72.90949048 377.60688119 -64.96643358 377.60857043 C-58.87163182 377.60860375 -52.77708578 377.58761075 -46.68234444 377.55883217 C-44.18506246 377.55031766 -41.6877466 377.54859371 -39.19045639 377.55419731 C-35.7775828 377.56083494 -32.36567273 377.54292038 -28.95289612 377.51898193 C-27.96746513 377.52674235 -26.98203415 377.53450277 -25.96674162 377.54249835 C-18.88853085 377.45476746 -12.48799243 376.18392639 -7.11505038 371.27937102 C-2.2376362 366.08208222 -0.75309842 360.73414253 -0.73828697 353.63945961 C-0.73082148 352.37349091 -0.72335599 351.10752221 -0.71566427 349.80319083 C-0.71744089 348.40595389 -0.71940176 347.00871717 -0.7215271 345.61148071 C-0.71652278 344.12137117 -0.71064658 342.63126433 -0.70397437 341.14116132 C-0.68817681 337.05013692 -0.68474382 332.95918119 -0.68332577 328.86812997 C-0.6796313 324.45508637 -0.66447558 320.04208043 -0.65071106 315.62905884 C-0.62843589 307.98440572 -0.61342414 300.33976599 -0.60334396 292.69508743 C-0.58875922 281.64216639 -0.56322295 270.58929201 -0.53501268 259.53639834 C-0.48954099 241.60386775 -0.45292773 223.67133045 -0.421875 205.73876953 C-0.39169101 188.31883566 -0.35734142 170.89891822 -0.31738281 153.47900391 C-0.31492126 152.40526184 -0.31245972 151.33151977 -0.30992357 150.22524007 C-0.297549 144.83859806 -0.28509246 139.45195625 -0.27259517 134.06531453 C-0.16902172 89.37689926 -0.07982032 44.68846358 0 0 Z " fill="#A6B2D9" transform="translate(453,75)"/>
<path d="M0 0 C0.7714032 -0.01245758 1.5428064 -0.02491516 2.33758545 -0.03775024 C3.56895233 -0.010121 3.56895233 -0.010121 4.82519531 0.01806641 C6.11432831 0.01657089 6.11432831 0.01657089 7.42950439 0.01504517 C9.2450893 0.01971634 11.06068834 0.03911408 12.87597656 0.07226562 C15.63108541 0.11924972 18.38229019 0.11341117 21.13769531 0.10009766 C22.90855139 0.11126045 24.67939132 0.12548604 26.45019531 0.14306641 C27.66941681 0.14033218 27.66941681 0.14033218 28.91326904 0.13754272 C37.70887499 0.35141661 44.7022328 3.81864883 51.11035156 9.74072266 C56.84077264 16.14531092 59.34447599 23.13240253 59.24316406 31.63134766 C58.39990028 39.3564193 55.03383179 47.06876718 49.0390625 52.15893555 C40.11171324 58.78709437 31.55405712 59.40884403 20.71582031 59.05712891 C19.36885718 59.03197781 18.02184804 59.00917681 16.67480469 58.98876953 C13.41643736 58.93037585 10.16050025 58.84852364 6.90332031 58.74462891 C6.93474121 59.84919434 6.93474121 59.84919434 6.96679688 60.97607422 C7.04999175 64.31545333 7.10199188 67.6546144 7.15332031 70.99462891 C7.18683594 72.15349609 7.22035156 73.31236328 7.25488281 74.50634766 C7.26777344 75.62138672 7.28066406 76.73642578 7.29394531 77.88525391 C7.31489258 78.91166992 7.33583984 79.93808594 7.35742188 80.99560547 C6.78145588 84.48236736 5.68864805 85.63115148 2.90332031 87.74462891 C-0.59667969 88.24462891 -0.59667969 88.24462891 -4.09667969 87.74462891 C-6.46165408 85.87754386 -7.75698684 84.4240146 -9.09667969 81.74462891 C-9.21469071 79.40785627 -9.26657929 77.0676652 -9.28955078 74.72802734 C-9.29772827 74.00585526 -9.30590576 73.28368317 -9.31433105 72.53962708 C-9.33918697 70.1444278 -9.3557029 67.74928786 -9.37011719 65.35400391 C-9.37544086 64.53588478 -9.38076454 63.71776566 -9.38624954 62.87485504 C-9.41298405 58.54320716 -9.43235655 54.21158811 -9.44677734 49.87988281 C-9.46341159 45.40963241 -9.5081775 40.94012122 -9.55914879 36.47014999 C-9.59283963 33.0299802 -9.60435681 29.58998531 -9.61000443 26.14966583 C-9.61671361 24.50224418 -9.63192718 22.85483389 -9.65589523 21.20757294 C-9.68758679 18.89737661 -9.68757857 16.58916605 -9.68017578 14.27880859 C-9.68826263 12.96579773 -9.69634949 11.65278687 -9.7046814 10.29998779 C-8.80808129 5.05701706 -5.98776124 -0.01121102 0 0 Z " fill="#020104" transform="translate(93.0966796875,266.25537109375)"/>
<path d="M0 0 C1.12223213 -0.01879967 1.12223213 -0.01879967 2.26713562 -0.03797913 C3.06303604 -0.02472092 3.85893646 -0.01146271 4.67895508 0.00219727 C5.9312365 -0.00142067 5.9312365 -0.00142067 7.20881653 -0.00511169 C8.97308098 -0.00413431 10.7373765 0.00923363 12.50146484 0.03417969 C15.17304499 0.06827879 17.84127384 0.0548872 20.51293945 0.03540039 C31.87326032 0.04491228 41.75019116 0.74696049 50.47583008 8.85375977 C56.78906961 16.16298111 58.51564127 23.65431333 58.40942383 33.10766602 C57.50694866 41.08837784 53.80274108 47.59561042 47.63598633 52.69360352 C39.01699047 59.0367971 30.85089288 59.0235102 20.51098633 58.81860352 C19.21161133 58.80506836 17.91223633 58.7915332 16.57348633 58.77758789 C13.38555221 58.74242685 10.19849034 58.69321016 7.01098633 58.63110352 C7.03717041 59.33195068 7.06335449 60.03279785 7.09033203 60.75488281 C7.19452173 63.94256001 7.25938215 67.12987877 7.32348633 70.31860352 C7.36538086 71.42139648 7.40727539 72.52418945 7.45043945 73.66040039 C7.57398724 81.8392638 7.57398724 81.8392638 4.71411133 85.86157227 C1.15147713 88.1937591 -0.81338455 88.39030881 -4.98901367 87.63110352 C-7.92533808 84.84920791 -8.90966767 83.16928909 -9.50367737 79.14025879 C-9.5303042 77.78524062 -9.53520124 76.42968277 -9.52246094 75.07446289 C-9.53538429 73.95887749 -9.53538429 73.95887749 -9.54856873 72.820755 C-9.57120059 70.37176329 -9.56449607 67.92391838 -9.55541992 65.47485352 C-9.56065648 63.76761536 -9.56693308 62.06038012 -9.57420349 60.35314941 C-9.58460228 56.77883265 -9.58005346 53.20491413 -9.56542969 49.63061523 C-9.54823522 45.05373181 -9.57174709 40.47810301 -9.60691929 35.90135956 C-9.62889505 32.37709256 -9.62745159 28.85312576 -9.61915398 25.32881165 C-9.61833468 23.64153161 -9.62519393 21.95422948 -9.639925 20.26701355 C-9.65737716 17.90647558 -9.64282686 15.54819203 -9.62011719 13.18774414 C-9.63180939 12.49356888 -9.64350159 11.79939362 -9.6555481 11.08418274 C-9.58197032 7.31900922 -9.04329364 5.70061692 -6.69888306 2.69825745 C-4.09827892 0.71445369 -3.16577245 0.00467293 0 0 Z " fill="#010002" transform="translate(257.989013671875,266.368896484375)"/>
<path d="M0 0 C3.87370052 0.6324409 5.34547348 1.67662915 8.0625 4.5 C8.63012695 7.89160156 8.63012695 7.89160156 8.55078125 11.890625 C8.53204956 13.82470215 8.53204956 13.82470215 8.51293945 15.79785156 C8.46741943 17.43206055 8.42189941 19.06626953 8.375 20.75 C8.271875 25.9475 8.16875 31.145 8.0625 36.5 C21.5925 36.5 35.1225 36.5 49.0625 36.5 C48.86507754 26.52238309 48.86507754 26.52238309 48.61206055 16.54614258 C48.59332886 14.67671997 48.59332886 14.67671997 48.57421875 12.76953125 C48.54803467 11.49698486 48.52185059 10.22443848 48.49487305 8.91333008 C49.21206847 4.60059493 50.66778966 3.16355156 54.0625 0.5 C57.0625 -0.125 57.0625 -0.125 60.0625 0.5 C63.49456181 3.17867853 64.9102848 4.65414065 65.69068909 8.99084473 C65.71716818 10.34585168 65.71642742 11.70156718 65.69360352 13.05664062 C65.70075882 13.80036423 65.70791412 14.54408783 65.71528625 15.31034851 C65.73214367 17.75961437 65.71279028 20.20704202 65.69140625 22.65625 C65.69223523 24.36348624 65.69469572 26.07072239 65.69871521 27.7779541 C65.70157116 31.35237716 65.68689238 34.92617289 65.65942383 38.50048828 C65.62534092 43.07726278 65.63136091 47.65291578 65.6500864 52.22974396 C65.66066598 55.75402131 65.65170997 59.27803868 65.63670158 62.80229187 C65.63152631 64.48955004 65.63199363 66.17683544 65.63824654 67.86408997 C65.64371054 70.22443818 65.62328831 72.58319287 65.59594727 74.94335938 C65.60247314 75.63753464 65.60899902 76.3317099 65.61572266 77.04692078 C65.52295025 81.76803389 64.4086585 84.18974925 61.0625 87.5 C59.0625 88.1640625 59.0625 88.1640625 57.0625 88.125 C56.4025 88.13789063 55.7425 88.15078125 55.0625 88.1640625 C51.91230945 87.1181008 50.85646664 85.23822028 49.0625 82.5 C48.60839844 79.1784668 48.60839844 79.1784668 48.671875 75.44921875 C48.68186523 74.24354248 48.69185547 73.03786621 48.70214844 71.7956543 C48.75677246 69.51461792 48.75677246 69.51461792 48.8125 67.1875 C48.93625 59.9171875 48.93625 59.9171875 49.0625 52.5 C35.8625 52.5 22.6625 52.5 9.0625 52.5 C9.18091582 61.81899149 9.18091582 61.81899149 9.33276367 71.13745117 C9.34025635 72.30252197 9.34774902 73.46759277 9.35546875 74.66796875 C9.3711792 75.85672607 9.38688965 77.0454834 9.40307617 78.27026367 C9.02918746 81.81590796 8.19127583 83.67058165 6.0625 86.5 C2.97076248 88.04586876 0.46820448 87.79359521 -2.9375 87.5 C-5.13171387 85.95812988 -5.13171387 85.95812988 -6.9375 83.5 C-7.33238365 80.81534158 -7.48532777 78.53998983 -7.45507812 75.85742188 C-7.4620874 75.09273087 -7.46909668 74.32803986 -7.47631836 73.54017639 C-7.4939035 71.01599666 -7.48227449 68.49294085 -7.46875 65.96875 C-7.47144478 64.21284775 -7.47532709 62.45694695 -7.48034668 60.7010498 C-7.48624241 57.02239768 -7.47767655 53.34413426 -7.45898438 49.66552734 C-7.43619456 44.95078339 -7.44931728 40.23695022 -7.47327423 35.52223969 C-7.48773032 31.89680116 -7.48312714 28.27157846 -7.47276306 24.64613342 C-7.47009524 22.90780021 -7.4733675 21.16944739 -7.48268127 19.43113708 C-7.49284406 17.00108967 -7.47735131 14.57251581 -7.45507812 12.14257812 C-7.46722351 11.06551353 -7.46722351 11.06551353 -7.47961426 9.96669006 C-7.42218065 6.58341444 -7.15331627 4.78558428 -5.08874512 2.05358887 C-2.9375 0.5 -2.9375 0.5 0 0 Z " fill="#010102" transform="translate(170.9375,266.5)"/>
<path d="M0 0 C0.0463682 7.36276592 0.08189196 14.72550029 0.10362434 22.08838272 C0.11405552 25.50737928 0.12820243 28.92627584 0.15087891 32.34521484 C0.17679333 36.277006 0.18647832 40.20875685 0.1953125 44.140625 C0.20563507 45.36678528 0.21595764 46.59294556 0.22659302 47.85626221 C0.22681961 49.56758331 0.22681961 49.56758331 0.22705078 51.31347656 C0.231492 52.31719299 0.23593323 53.32090942 0.24050903 54.3550415 C-0.01321954 57.14537966 -0.39974431 58.70854608 -2 61 C-5.1559288 63.20396883 -7.90500124 63.24378318 -11.68652344 63.22705078 C-12.82740417 63.22689972 -13.96828491 63.22674866 -15.14373779 63.22659302 C-16.36989807 63.21627045 -17.59605835 63.20594788 -18.859375 63.1953125 C-20.11888977 63.1924826 -21.37840454 63.18965271 -22.67608643 63.18673706 C-26.01673902 63.17744121 -29.35711669 63.15948583 -32.69769287 63.1373291 C-36.10963572 63.11683208 -39.52160702 63.10772712 -42.93359375 63.09765625 C-49.62247168 63.07559907 -56.31121997 63.04212367 -63 63 C-57.20095811 55.90484554 -50.67698168 49.53181379 -44.19921875 43.06640625 C-42.95450991 41.82102303 -41.70994949 40.57549146 -40.4655304 39.32981873 C-37.87081205 36.73363301 -35.2743106 34.1392477 -32.67651367 31.54614258 C-29.33945331 28.21481477 -26.00695043 24.87896943 -22.67573833 21.54179478 C-20.11345874 18.97591397 -17.54881757 16.41240433 -14.98343849 13.84962273 C-13.75264811 12.61950099 -12.52260445 11.38863168 -11.29331017 10.15701485 C-9.58425174 8.4454333 -7.87204964 6.7370619 -6.15893555 5.02954102 C-5.64831573 4.51689697 -5.13769592 4.00425293 -4.61160278 3.47607422 C-1.1142698 0 -1.1142698 0 0 0 Z " fill="#A4AFD6" transform="translate(193,29)"/>
<path d="M0 0 C4.145625 -0.0825 8.29125 -0.165 12.5625 -0.25 C14.50298218 -0.30462402 14.50298218 -0.30462402 16.48266602 -0.36035156 C23.21044685 -0.42508694 27.61533213 -0.18975561 33 4 C35.7123914 8.02483885 36.68838644 11.18129493 36 16 C34.55176931 19.82922012 33.01789601 22.25377218 29.6875 24.6953125 C24.04501425 26.69170047 18.55625734 26.31184732 12.625 26.1875 C8.45875 26.125625 4.2925 26.06375 0 26 C0 17.42 0 8.84 0 0 Z " fill="#7C71F6" transform="translate(100,283)"/>
<path d="M0 0 C6.001875 -0.0928125 6.001875 -0.0928125 12.125 -0.1875 C13.37555176 -0.21481201 14.62610352 -0.24212402 15.91455078 -0.27026367 C23.12630423 -0.32429082 27.83175125 0.16525111 33.375 5.125 C35.64942776 9.14898757 35.7894096 12.4788359 35 17 C32.74389863 21.51220275 30.48512709 23.78439754 26 26 C23.0456543 26.34057617 23.0456543 26.34057617 19.82421875 26.29296875 C18.25933716 26.28172974 18.25933716 26.28172974 16.6628418 26.27026367 C15.350979 26.24295166 14.03911621 26.21563965 12.6875 26.1875 C8.500625 26.125625 4.31375 26.06375 0 26 C0 17.42 0 8.84 0 0 Z " fill="#7E73FA" transform="translate(265,283)"/>
<path d="M0 0 C1.91015625 0.4453125 1.91015625 0.4453125 4.47265625 2.5078125 C6.37466577 6.3945276 6.18079195 8.33443229 4.91015625 12.4453125 C2.78515625 14.9453125 2.78515625 14.9453125 -0.08984375 16.4453125 C-3.86894991 16.4453125 -6.09677408 16.27820964 -9.02734375 13.8203125 C-10.52684241 10.46849197 -10.54361848 8.07551032 -10.08984375 4.4453125 C-7.53315462 0.29069266 -4.61630624 -0.25885829 0 0 Z " fill="#050508" transform="translate(392.08984375,302.5546875)"/>
</svg>
